<svg width="869" height="566" viewBox="0 0 869 566" fill="none" xmlns="http://www.w3.org/2000/svg">
<g clip-path="url(#clip0_166_183)">
<path d="M759.635 353.496C759.635 366.134 753.478 376.38 745.885 376.38C739.966 376.38 734.918 370.153 732.981 361.422L732.366 360.659C730.781 358.703 727.738 358.736 726.196 360.721L724.013 363.537V363.769L723.854 363.564L723.773 363.457V424.272H723.854V424.309H661.584L661.46 424.401L658.599 426.523C657.171 427.583 656.733 429.37 657.293 430.876C657.308 430.916 657.323 430.955 657.338 430.997C657.574 431.621 657.984 432.198 658.571 432.651L659.351 433.253C666.743 434.823 672.379 438.477 674.101 442.976C674.123 443.033 674.141 443.088 674.164 443.145C674.458 443.997 674.612 444.878 674.612 445.782C674.612 453.208 664.136 459.229 651.214 459.229C640.107 459.229 630.811 454.782 628.413 448.817C628.38 448.733 628.347 448.647 628.317 448.562C628.011 447.693 627.849 446.792 627.849 445.873C627.849 440.084 634.216 435.147 643.143 433.253L643.922 432.651C645.31 431.577 645.72 429.816 645.163 428.333C644.925 427.642 644.477 427.008 643.826 426.523L640.965 424.401L640.841 424.309H579.121V424.285H579.31V363.727L579.422 363.586L579.473 363.653V363.519L581.543 360.85C583.085 358.864 586.128 358.835 587.713 360.788L588.328 361.551C590.265 370.282 595.311 376.509 601.233 376.509C608.828 376.509 614.982 366.265 614.982 353.625C614.982 340.985 608.825 330.741 601.233 330.741C595.314 330.741 590.265 336.968 588.328 345.699L587.713 346.462C586.128 348.418 583.085 348.386 581.543 346.4L579.473 343.731V343.364L579.331 343.545L579.31 343.52V283.277H641.355L641.606 283.092L644.259 285.06C646.29 286.568 646.323 289.544 644.323 291.094L643.543 291.696C634.616 293.59 628.249 298.525 628.249 304.317C628.249 311.745 638.725 317.764 651.647 317.764C664.569 317.764 675.045 311.745 675.045 304.317C675.045 298.527 668.678 293.59 659.751 291.696L658.971 291.094C656.971 289.544 657.001 286.568 659.034 285.06L661.769 283.035L662.1 283.28H723.775V343.792L723.856 343.686L723.935 343.585V343.352L726.198 346.271C727.74 348.257 730.783 348.289 732.368 346.333L732.983 345.57C734.92 336.84 739.966 330.612 745.887 330.612C753.48 330.612 759.637 340.858 759.637 353.496H759.635Z" stroke="white" stroke-opacity="0.25" stroke-miterlimit="10"/>
<path d="M868.873 0.124023V141.681H868.711V141.523H806.826L806.851 141.542L806.666 141.681L803.894 143.736C801.864 145.244 801.831 148.22 803.831 149.77L804.611 150.372C813.538 152.266 819.905 157.201 819.905 162.993C819.905 170.421 809.429 176.44 796.507 176.44C783.585 176.44 773.109 170.418 773.109 162.993C773.109 157.203 779.476 152.266 788.403 150.372L789.182 149.77C791.182 148.22 791.152 145.244 789.119 143.736L786.347 141.681L786.322 141.661L786.506 141.523H724.137V80.839L722.036 78.1277C720.494 76.1419 717.451 76.1097 715.866 78.0658L715.251 78.8284C713.314 87.559 708.269 93.7864 702.347 93.7864C694.752 93.7864 688.597 83.5404 688.597 70.9025C688.597 58.2646 694.754 48.0187 702.347 48.0187C708.266 48.0187 713.314 54.246 715.251 62.9766L715.866 63.7392C717.451 65.6953 720.494 65.6631 722.036 63.6773L724.137 60.966V0.124023H868.876H868.873Z" stroke="white" stroke-opacity="0.25" stroke-miterlimit="10"/>
<path d="M207.566 282.765L207.683 282.851L207.624 282.894H207.391L207.566 282.765Z" stroke="white" stroke-opacity="0.25" stroke-miterlimit="10"/>
<path d="M228.137 282.894H227.789L227.964 282.765L228.137 282.894Z" stroke="white" stroke-opacity="0.25" stroke-miterlimit="10"/>
<path d="M207.391 282.634H207.978L207.682 282.852L207.391 282.634Z" stroke="white" stroke-opacity="0.25" stroke-miterlimit="10"/>
<path d="M228.136 282.634L227.763 282.914L227.386 282.634H228.136Z" stroke="white" stroke-opacity="0.25" stroke-miterlimit="10"/>
<path d="M62.6045 282.765H62.955L62.7823 282.894L62.6045 282.765Z" stroke="white" stroke-opacity="0.25" stroke-miterlimit="10"/>
<path d="M83.3531 282.765L83.1753 282.894L83 282.765H83.3531Z" stroke="white" stroke-opacity="0.25" stroke-miterlimit="10"/>
<path d="M786.363 282.728L786.185 282.861L786.18 282.857L786.002 282.728H786.363Z" stroke="white" stroke-opacity="0.25" stroke-miterlimit="10"/>
<path d="M641.034 424.413H579.189V424.319H640.912L641.034 424.413Z" stroke="white" stroke-opacity="0.25" stroke-miterlimit="10"/>
<path d="M723.927 424.319V424.413H661.533L661.657 424.319H723.927Z" stroke="white" stroke-opacity="0.25" stroke-miterlimit="10"/>
<path d="M207.391 282.634H207.978L207.682 282.852L207.391 282.634Z" stroke="white" stroke-opacity="0.25" stroke-miterlimit="10"/>
<path d="M228.136 282.634L227.763 282.914L227.386 282.634H228.136Z" stroke="white" stroke-opacity="0.25" stroke-miterlimit="10"/>
<path d="M207.978 282.634L207.682 282.852L207.74 282.894H207.391L207.565 282.765L207.74 282.634H207.978Z" stroke="white" stroke-opacity="0.25" stroke-miterlimit="10"/>
<path d="M228.136 282.894H227.736L227.386 282.634H227.786L227.963 282.765L228.136 282.894Z" stroke="white" stroke-opacity="0.25" stroke-miterlimit="10"/>
<path d="M62.427 141.574L62.5713 141.681H0.126465V141.468H62.5713L62.427 141.574Z" stroke="white" stroke-opacity="0.25" stroke-miterlimit="10"/>
<path d="M145.184 141.468V141.681H83.063L83.2073 141.574L83.063 141.468H145.184Z" stroke="white" stroke-opacity="0.25" stroke-miterlimit="10"/>
<path d="M289.892 141.574V202.411L289.857 202.456V141.681H227.913L227.999 141.614L227.946 141.574H289.892Z" stroke="white" stroke-opacity="0.25" stroke-miterlimit="10"/>
<path d="M289.893 222.292V283.129H289.856V222.247L289.893 222.292Z" stroke="white" stroke-opacity="0.25" stroke-miterlimit="10"/>
<path d="M434.595 141.626V202.466L434.565 202.508V141.681H372.689L372.755 141.629L372.753 141.626H434.595Z" stroke="white" stroke-opacity="0.25" stroke-miterlimit="10"/>
<path d="M434.595 222.341V283.181H434.564V222.299L434.595 222.341Z" stroke="white" stroke-opacity="0.25" stroke-miterlimit="10"/>
<path d="M579.301 141.678V141.681H517.466V141.678H579.301Z" stroke="white" stroke-opacity="0.25" stroke-miterlimit="10"/>
<path d="M579.301 141.733V202.518L579.27 202.56V141.733H579.301Z" stroke="white" stroke-opacity="0.25" stroke-miterlimit="10"/>
<path d="M579.301 222.393V283.233H579.27V222.351L579.301 222.393Z" stroke="white" stroke-opacity="0.25" stroke-miterlimit="10"/>
<path d="M579.27 141.733H579.301V202.518L579.27 202.56V141.733Z" stroke="white" stroke-opacity="0.25" stroke-miterlimit="10"/>
<path d="M579.27 222.351L579.301 222.393V283.233H579.27V222.351Z" stroke="white" stroke-opacity="0.25" stroke-miterlimit="10"/>
<path d="M724.009 141.733V202.57L723.973 202.615V141.733H724.009Z" stroke="white" stroke-opacity="0.25" stroke-miterlimit="10"/>
<path d="M723.973 222.406L724.009 222.45V283.077H723.973V222.406Z" stroke="white" stroke-opacity="0.25" stroke-miterlimit="10"/>
<path d="M62.8941 141.681H62.6045L62.7467 141.574L62.8941 141.681Z" stroke="white" stroke-opacity="0.25" stroke-miterlimit="10"/>
<path d="M83.3526 141.681H83.063L83.2078 141.574L83.3526 141.681Z" stroke="white" stroke-opacity="0.25" stroke-miterlimit="10"/>
<path d="M62.8941 141.681H62.6045L62.7467 141.574L62.8941 141.681Z" stroke="white" stroke-opacity="0.25" stroke-miterlimit="10"/>
<path d="M83.3531 141.681H83.0635L83.2083 141.574L83.3531 141.681Z" stroke="white" stroke-opacity="0.25" stroke-miterlimit="10"/>
<path d="M207.452 141.68H207.343L207.399 141.639L207.452 141.68Z" stroke="white" stroke-opacity="0.25" stroke-miterlimit="10"/>
<path d="M228.088 141.681H227.913L227.999 141.614L228.088 141.681Z" stroke="white" stroke-opacity="0.25" stroke-miterlimit="10"/>
<path d="M207.452 141.68H207.343L207.399 141.639L207.452 141.68Z" stroke="white" stroke-opacity="0.25" stroke-miterlimit="10"/>
<path d="M228.088 141.681H227.913L227.999 141.614L228.088 141.681Z" stroke="white" stroke-opacity="0.25" stroke-miterlimit="10"/>
<path d="M352.084 141.678L352.087 141.681H352.081L352.084 141.678Z" stroke="white" stroke-opacity="0.25" stroke-miterlimit="10"/>
<path d="M372.827 141.68H372.689L372.756 141.629L372.827 141.68Z" stroke="white" stroke-opacity="0.25" stroke-miterlimit="10"/>
<path d="M352.084 141.679L352.087 141.682H352.081L352.084 141.679Z" stroke="white" stroke-opacity="0.25" stroke-miterlimit="10"/>
<path d="M372.827 141.68H372.689L372.756 141.629L372.827 141.68Z" stroke="white" stroke-opacity="0.25" stroke-miterlimit="10"/>
<path d="M517.565 141.681H517.466V141.678H517.562L517.565 141.681Z" stroke="white" stroke-opacity="0.25" stroke-miterlimit="10"/>
<path d="M517.565 141.681H517.466V141.678H517.562L517.565 141.681Z" stroke="white" stroke-opacity="0.25" stroke-miterlimit="10"/>
<path d="M786.343 141.681H786.294L786.319 141.661L786.343 141.681Z" stroke="white" stroke-opacity="0.25" stroke-miterlimit="10"/>
<path d="M807.04 141.681H806.664L806.852 141.54L807.04 141.681Z" stroke="white" stroke-opacity="0.25" stroke-miterlimit="10"/>
<path d="M786.343 141.681H786.294L786.319 141.661L786.343 141.681Z" stroke="white" stroke-opacity="0.25" stroke-miterlimit="10"/>
<path d="M807.04 141.681H806.664L806.852 141.54L807.04 141.681Z" stroke="white" stroke-opacity="0.25" stroke-miterlimit="10"/>
<path d="M325.724 70.9025C325.724 83.5404 319.567 93.7863 311.974 93.7863C306.055 93.7863 301.006 87.559 299.07 78.8284L298.454 78.0658C296.87 76.1097 293.827 76.1394 292.285 78.1277L290.021 81.047L289.859 80.839V141.681H228.025L227.936 141.614L227.883 141.575L225.042 139.467C223.012 137.959 222.979 134.983 224.979 133.433L225.759 132.832C234.686 130.937 241.053 126.003 241.053 120.211C241.053 112.783 230.577 106.763 217.655 106.763C204.733 106.763 194.257 112.785 194.257 120.211C194.257 126 200.624 130.937 209.551 132.832L210.33 133.433C212.33 134.983 212.3 137.959 210.267 139.467L207.427 141.575L207.34 141.641L207.285 141.681H145.126V80.839L145.288 81.047L147.551 78.1277C149.093 76.1419 152.136 76.1097 153.721 78.0658L154.336 78.8284C156.273 87.559 161.319 93.7863 167.241 93.7863C174.836 93.7863 180.99 83.5404 180.99 70.9025C180.99 58.2646 174.833 48.0187 167.241 48.0187C161.321 48.0187 156.273 54.246 154.336 62.9766L153.721 63.7392C152.136 65.6953 149.093 65.6631 147.551 63.6773L145.288 60.758L145.126 60.966V0.124023H289.864V60.966L290.026 60.758L292.29 63.6773C293.832 65.6631 296.875 65.6953 298.46 63.7392L299.075 62.9766C301.012 54.246 306.057 48.0187 311.979 48.0187C319.574 48.0187 325.729 58.2646 325.729 70.9025H325.724Z" stroke="white" stroke-opacity="0.25" stroke-miterlimit="10"/>
<path d="M399.315 70.9025C399.315 83.5404 405.472 93.7863 413.065 93.7863C418.984 93.7863 424.032 87.559 425.969 78.8284L426.584 78.0658C428.169 76.1097 431.212 76.1394 432.754 78.1277L434.856 80.839V141.681H373.021L372.95 141.629L370.038 139.467C368.008 137.959 367.975 134.983 369.975 133.433L370.755 132.832C379.682 130.937 386.049 126.003 386.049 120.211C386.049 112.783 375.573 106.763 362.651 106.763C349.729 106.763 339.253 112.785 339.253 120.211C339.253 126 345.62 130.937 354.547 132.832L355.327 133.433C357.327 134.983 357.296 137.959 355.263 139.467L352.352 141.627L352.283 141.679H352.278H290.12V80.8365L290.282 81.0445L292.545 78.1252C294.087 76.1394 297.13 76.1072 298.715 78.0633L299.33 78.8259C301.267 87.5566 306.313 93.7839 312.234 93.7839C319.829 93.7839 325.984 83.5379 325.984 70.9C325.984 58.2622 319.827 48.0162 312.234 48.0162C306.315 48.0162 301.267 54.2435 299.33 62.9741L298.715 63.7368C297.13 65.6929 294.087 65.6607 292.545 63.6749L290.282 60.7556L290.12 60.9636V0.124023H434.858V60.966L432.757 63.6773C431.215 65.6631 428.172 65.6953 426.587 63.7392L425.972 62.9766C424.035 54.246 418.989 48.0187 413.068 48.0187C405.475 48.0187 399.318 58.2646 399.318 70.9025H399.315Z" stroke="white" stroke-opacity="0.25" stroke-miterlimit="10"/>
<path d="M543.988 70.9025C543.988 83.5404 550.145 93.7863 557.738 93.7863C563.657 93.7863 568.705 87.559 570.642 78.8284L571.257 78.0658C572.842 76.1097 575.885 76.1394 577.427 78.1277L579.528 80.839V141.681H579.432H517.598L514.615 143.895C512.585 145.403 512.552 148.379 514.552 149.929L515.332 150.53C524.259 152.425 530.626 157.359 530.626 163.151C530.626 170.577 520.15 176.599 507.228 176.599C494.306 176.599 483.829 170.577 483.829 163.151C483.829 157.362 490.194 152.425 499.124 150.53L499.903 149.929C501.903 148.379 501.873 145.403 499.84 143.895L496.858 141.683H496.954H434.795V80.8439L432.694 78.1326C431.152 76.1468 428.109 76.1146 426.524 78.0707L425.909 78.8334C423.972 87.564 418.926 93.7913 413.005 93.7913C405.412 93.7913 399.255 83.5453 399.255 70.9075C399.255 58.2696 405.412 48.0236 413.005 48.0236C418.924 48.0236 423.972 54.2509 425.909 62.9816L426.524 63.7442C428.109 65.7003 431.152 65.6681 432.694 63.6823L434.795 60.971V0.124023H579.534V60.966L577.432 63.6773C575.89 65.6631 572.847 65.6953 571.262 63.7392L570.647 62.9766C568.71 54.246 563.665 48.0187 557.743 48.0187C550.15 48.0187 543.993 58.2646 543.993 70.9025H543.988Z" stroke="white" stroke-opacity="0.25" stroke-miterlimit="10"/>
<path d="M688.661 70.9025C688.661 83.5404 694.818 93.7863 702.41 93.7863C708.33 93.7863 713.378 87.559 715.315 78.8284L715.93 78.0658C717.515 76.1097 720.558 76.1394 722.1 78.1277L724.201 80.839V141.681H662.366L659.381 139.467C657.351 137.959 657.318 134.983 659.318 133.433L660.098 132.832C669.025 130.937 675.392 126.003 675.392 120.211C675.392 112.783 664.916 106.763 651.994 106.763C639.072 106.763 628.596 112.785 628.596 120.211C628.596 126 634.963 130.937 643.89 132.832L644.67 133.433C646.67 134.983 646.637 137.959 644.606 139.467L641.621 141.681H579.465V80.839L577.364 78.1277C575.822 76.1419 572.779 76.1097 571.194 78.0658L570.579 78.8284C568.642 87.559 563.596 93.7863 557.675 93.7863C550.079 93.7863 543.925 83.5404 543.925 70.9025C543.925 58.2646 550.082 48.0187 557.675 48.0187C563.594 48.0187 568.642 54.246 570.579 62.9766L571.194 63.7392C572.779 65.6953 575.822 65.6631 577.364 63.6773L579.465 60.966V0.124023H724.203V60.966L722.102 63.6773C720.56 65.6631 717.517 65.6953 715.932 63.7392L715.317 62.9766C713.38 54.246 708.335 48.0187 702.413 48.0187C694.82 48.0187 688.663 58.2646 688.663 70.9025H688.661Z" stroke="white" stroke-opacity="0.25" stroke-miterlimit="10"/>
<path d="M180.727 70.9025C180.727 83.5404 174.57 93.7863 166.977 93.7863C161.058 93.7863 156.009 87.559 154.073 78.8284L153.458 78.0658C151.873 76.1097 148.83 76.1394 147.288 78.1277L145.024 81.047L144.862 80.839V141.681H83.0276L82.8858 141.575L82.7415 141.468L80.0452 139.467C78.0148 137.959 77.9819 134.983 79.982 133.433L80.7617 132.832C89.6886 130.937 96.0558 126.003 96.0558 120.211C96.0558 112.783 85.5796 106.763 72.6577 106.763C59.7358 106.763 49.2595 112.785 49.2595 120.211C49.2595 126 55.6268 130.937 64.5537 132.832L65.3334 133.433C67.3335 134.983 67.3031 137.959 65.2701 139.467L62.5739 141.468L62.4295 141.575L62.2878 141.681H0.126465V0.124023H144.865V60.966L145.027 60.758L147.29 63.6773C148.832 65.6631 151.875 65.6953 153.46 63.7392L154.075 62.9766C156.012 54.246 161.058 48.0187 166.979 48.0187C174.572 48.0187 180.729 58.2646 180.729 70.9025H180.727Z" stroke="white" stroke-opacity="0.25" stroke-miterlimit="10"/>
<path d="M868.759 282.728V283.079H806.925L806.801 282.988H806.687L806.742 282.946L806.451 282.728L803.94 280.866C801.909 279.358 801.876 276.381 803.876 274.831L803.914 274.802C803.94 274.779 803.965 274.76 803.99 274.74L804.77 274.138C809.094 273.222 812.818 271.59 815.507 269.496C815.641 269.392 815.773 269.283 815.902 269.174C818.457 267.017 819.95 264.415 819.95 261.609C819.95 261.102 819.902 260.599 819.803 260.106C819.791 260.034 819.778 259.968 819.763 259.896C819.738 259.782 819.71 259.67 819.682 259.562C819.631 259.366 819.571 259.173 819.505 258.98C819.15 257.95 818.591 256.959 817.846 256.028C817.707 255.852 817.563 255.679 817.411 255.506C816.555 254.54 815.502 253.644 814.284 252.832C814.16 252.752 814.039 252.671 813.912 252.591C813.535 252.354 813.145 252.121 812.743 251.901C812.611 251.826 812.472 251.752 812.335 251.678C812.044 251.524 811.745 251.376 811.439 251.23C811.168 251.106 810.894 250.979 810.613 250.856C810.016 250.598 809.398 250.355 808.758 250.13C808.596 250.073 808.436 250.019 808.272 249.964C808.132 249.917 807.99 249.87 807.849 249.826C807.801 249.811 807.753 249.796 807.707 249.781C807.401 249.687 807.092 249.595 806.778 249.506C806.608 249.459 806.439 249.412 806.266 249.368C806.117 249.328 805.968 249.291 805.818 249.251C805.408 249.15 804.99 249.056 804.565 248.966C804.249 248.9 803.93 248.84 803.611 248.781C803.028 248.674 802.438 248.583 801.836 248.503C801.648 248.479 801.459 248.454 801.269 248.432C801.046 248.407 800.826 248.38 800.6 248.357C800.438 248.34 800.276 248.328 800.114 248.313C799.767 248.283 799.421 248.256 799.066 248.236C798.924 248.226 798.785 248.216 798.641 248.211C798.545 248.204 798.448 248.199 798.35 248.196C798.185 248.189 798.021 248.182 797.859 248.177C797.686 248.169 797.519 248.167 797.347 248.164C797.218 248.159 797.086 248.157 796.955 248.157C796.881 248.157 796.81 248.157 796.734 248.157H796.552C788.881 248.157 782.073 250.279 777.807 253.555C777.731 253.612 777.658 253.671 777.585 253.73C774.865 255.927 773.265 258.611 773.265 261.513C773.265 264.633 775.114 267.502 778.212 269.783C778.281 269.835 778.349 269.884 778.42 269.934C778.488 269.986 778.559 270.035 778.63 270.085C781.238 271.895 784.651 273.306 788.56 274.133L788.676 274.222L789.339 274.735C791.306 276.26 791.309 279.162 789.377 280.69C789.306 280.749 789.238 280.809 789.162 280.863L786.651 282.725L786.471 282.859L786.592 282.948L786.64 282.983H786.301L786.177 283.074H724.132V343.797L724.213 343.691L724.292 343.589V343.357L726.555 346.276C728.097 348.262 731.14 348.294 732.725 346.338L733.34 345.575C735.277 336.845 740.323 330.617 746.244 330.617C753.84 330.617 759.994 340.863 759.994 353.501C759.994 366.139 753.837 376.385 746.244 376.385C740.325 376.385 735.277 370.158 733.34 361.427L732.725 360.664C731.14 358.708 728.097 358.738 726.555 360.726L724.373 363.542V363.774L724.213 363.569L724.132 363.462V424.277H785.886L785.934 424.314L786.076 424.421L786.22 424.527L788.916 426.528C788.962 426.563 789.008 426.6 789.053 426.637C790.899 428.184 790.868 431.024 788.929 432.525L788.149 433.127C779.223 435.021 772.855 439.956 772.855 445.747C772.855 448.463 774.258 450.989 776.666 453.101C776.741 453.168 776.822 453.235 776.901 453.304C777.2 453.559 777.516 453.809 777.845 454.049C782.129 457.182 788.782 459.195 796.253 459.195C798.676 459.195 801.013 458.982 803.211 458.591C803.694 458.504 804.17 458.407 804.641 458.301C813.317 456.332 819.459 451.472 819.459 445.784C819.459 440.097 813.092 435.058 804.165 433.164L803.385 432.562C801.385 431.012 801.416 428.036 803.449 426.528L806.145 424.527L806.289 424.421L806.431 424.314H806.573L806.623 424.277H868.861V282.72H868.747L868.759 282.728Z" stroke="white" stroke-opacity="0.25" stroke-miterlimit="10"/>
<path d="M614.615 353.372C614.615 366.013 608.458 376.256 600.866 376.256C594.947 376.256 589.898 370.029 587.962 361.298L587.346 360.535C585.762 358.582 582.718 358.609 581.177 360.597L579.106 363.267L579.055 363.336L578.944 363.195L578.913 363.155L578.754 362.95V424.037H516.706L516.676 424.062H516.484L513.499 426.275C511.468 427.783 511.435 430.759 513.435 432.309L514.215 432.911C523.142 434.805 529.509 439.74 529.509 445.532C529.509 452.029 521.489 457.454 510.825 458.707C510.683 458.724 510.539 458.739 510.395 458.754C509.078 458.887 507.716 458.957 506.331 458.957C493.409 458.957 482.933 452.935 482.933 445.509C482.933 439.72 489.3 434.783 498.227 432.889L499.007 432.287C501.007 430.737 500.974 427.761 498.944 426.253L495.959 424.039H434.205V363.281L434.142 363.202L432.038 360.488C430.496 358.503 427.453 358.47 425.868 360.427L425.253 361.189C423.316 369.92 418.271 376.147 412.349 376.147C404.754 376.147 398.599 365.901 398.599 353.263C398.599 340.625 404.756 330.379 412.349 330.379C418.268 330.379 423.316 336.607 425.253 345.337L425.868 346.1C427.453 348.056 430.496 348.024 432.038 346.038L434.142 343.324L434.205 343.245V282.98H496.283L496.599 282.747H496.713L496.655 282.705L496.949 282.487L499.268 280.766C499.959 280.251 500.42 279.568 500.645 278.828C501.21 277.344 500.8 275.577 499.41 274.499L498.63 273.898C489.703 272.004 483.336 267.069 483.336 261.277C483.336 260.411 483.478 259.564 483.753 258.744C485.974 252.646 495.384 248.065 506.655 248.065C519.577 248.065 530.054 254.087 530.054 261.512C530.054 262.362 529.917 263.194 529.654 263.998C528.018 268.577 522.329 272.308 514.84 273.898L514.061 274.499C513.402 275.012 512.962 275.676 512.747 276.391C512.172 277.902 512.61 279.702 514.046 280.766L516.365 282.487L516.714 282.747L516.739 282.765L517.03 282.982H578.754V343.574L578.913 343.369L578.944 343.329L578.964 343.305L579.106 343.488L581.177 346.157C582.718 348.143 585.762 348.175 587.346 346.219L587.962 345.456C589.898 336.726 594.944 330.498 600.866 330.498C608.461 330.498 614.615 340.744 614.615 353.382V353.372Z" stroke="white" stroke-opacity="0.25" stroke-miterlimit="10"/>
<path d="M398.559 353.518C398.559 366.156 404.716 376.402 412.308 376.402C418.228 376.402 423.276 370.175 425.213 361.444L425.828 360.682C427.413 358.726 430.456 358.755 431.998 360.744L434.101 363.457V424.297H371.864L371.834 424.322H371.705L368.72 426.535C366.689 428.043 366.656 431.019 368.656 432.569L369.436 433.171C378.363 435.065 384.73 440 384.73 445.792C384.73 445.898 384.73 446.007 384.723 446.114C384.708 446.485 384.667 446.851 384.599 447.215C384.589 447.272 384.576 447.329 384.566 447.386C384.558 447.431 384.548 447.478 384.538 447.522C384.518 447.617 384.495 447.711 384.47 447.805C384.424 447.98 384.373 448.151 384.315 448.325C384.292 448.392 384.27 448.458 384.244 448.525C384.227 448.577 384.209 448.632 384.186 448.684C384.158 448.76 384.125 448.837 384.095 448.914C384.029 449.077 383.956 449.238 383.877 449.399C383.877 449.399 383.877 449.407 383.872 449.409C383.842 449.474 383.809 449.535 383.778 449.595C383.677 449.793 383.568 449.991 383.449 450.184C383.401 450.266 383.351 450.348 383.297 450.427C383.242 450.518 383.183 450.605 383.12 450.697C383.075 450.764 383.029 450.83 382.981 450.897C382.908 451.001 382.832 451.105 382.751 451.207C382.69 451.286 382.626 451.368 382.563 451.444C382.295 451.779 382.004 452.106 381.685 452.423C381.614 452.497 381.543 452.566 381.469 452.638C381.391 452.715 381.31 452.791 381.229 452.866C380.809 453.257 380.353 453.636 379.867 453.995C379.786 454.059 379.7 454.121 379.616 454.178C379.52 454.25 379.421 454.317 379.323 454.386C379.224 454.455 379.123 454.522 379.021 454.592C378.92 454.658 378.819 454.723 378.715 454.79C378.611 454.857 378.505 454.921 378.399 454.988C378.302 455.047 378.209 455.104 378.112 455.161C377.991 455.233 377.872 455.302 377.748 455.372C377.692 455.404 377.636 455.436 377.581 455.466C377.525 455.495 377.469 455.528 377.414 455.557C377.3 455.619 377.186 455.681 377.072 455.738C376.963 455.797 376.852 455.854 376.74 455.909C376.578 455.991 376.416 456.07 376.254 456.147C376.09 456.226 375.922 456.303 375.758 456.377C375.654 456.424 375.553 456.468 375.447 456.513C375.358 456.553 375.267 456.59 375.176 456.629C375.117 456.654 375.057 456.679 374.998 456.706C374.819 456.78 374.641 456.852 374.459 456.924C373.826 457.169 373.173 457.399 372.5 457.61C372.327 457.662 372.158 457.714 371.983 457.766C371.808 457.818 371.636 457.867 371.459 457.917C371.325 457.954 371.186 457.991 371.049 458.028C370.768 458.103 370.484 458.172 370.198 458.241C370.031 458.278 369.867 458.316 369.697 458.355C369.558 458.385 369.416 458.417 369.274 458.444C369.183 458.467 369.092 458.484 368.996 458.501C368.611 458.578 368.218 458.65 367.826 458.717C367.786 458.727 367.745 458.734 367.699 458.739C367.548 458.764 367.396 458.789 367.241 458.811C367.087 458.833 366.93 458.853 366.773 458.875C365.074 459.101 363.304 459.219 361.487 459.219C348.565 459.219 338.088 453.198 338.088 445.772C338.088 439.983 344.456 435.045 353.383 433.151L354.162 432.55C356.162 431 356.13 428.023 354.099 426.515L351.114 424.302H289.36V363.19L289.247 363.044L287.386 360.645C285.844 358.659 282.801 358.627 281.216 360.583L280.601 361.345C278.664 370.076 273.618 376.303 267.697 376.303C260.101 376.303 253.947 366.057 253.947 353.419C253.947 340.781 260.104 330.536 267.697 330.536C273.616 330.536 278.664 336.763 280.601 345.493L281.216 346.256C282.801 348.212 285.844 348.182 287.386 346.194L289.247 343.795L289.36 343.649V283.139H289.376V283.191H351.534L351.78 283.01H351.517L351.694 282.881L351.517 282.752H351.866L354.499 280.799C355.59 279.989 356.104 278.758 356.038 277.55C356.038 277.538 356.038 277.525 356.038 277.518C355.97 276.485 355.481 275.475 354.565 274.765L353.785 274.163C345.301 272.363 339.132 267.817 338.539 262.399C338.509 262.117 338.491 261.83 338.491 261.542C338.491 254.117 348.967 248.095 361.889 248.095C374.811 248.095 384.692 253.777 385.262 260.916C385.282 261.124 385.287 261.334 385.287 261.542C385.287 267.331 378.92 272.269 369.993 274.163L369.213 274.765C368.089 275.639 367.606 276.961 367.76 278.221C367.882 279.199 368.388 280.143 369.274 280.799L371.907 282.752H372.257L372.079 282.881L372.257 283.01H372.026L372.272 283.191H434.074V283.243H434.091V343.587L431.987 346.301C430.446 348.286 427.402 348.319 425.818 346.363L425.202 345.6C423.266 336.869 418.22 330.642 412.298 330.642C404.703 330.642 398.548 340.888 398.548 353.526L398.559 353.518Z" stroke="white" stroke-opacity="0.25" stroke-miterlimit="10"/>
<path d="M109.325 353.543C109.325 366.181 115.482 376.427 123.074 376.427C128.994 376.427 134.042 370.2 135.979 361.469L136.594 360.707C138.179 358.751 141.222 358.78 142.764 360.769L144.865 363.48V424.322H82.3871L79.4022 426.535C77.3718 428.043 77.3388 431.02 79.3389 432.57L80.1187 433.171C89.0455 435.066 95.4128 440 95.4128 445.792C95.4128 453.195 85.0024 459.202 72.1336 459.239C59.2674 459.202 48.8545 453.195 48.8545 445.792C48.8545 440.003 55.2217 435.066 64.1486 433.171L64.9284 432.57C66.9284 431.02 66.8955 428.043 64.8651 426.535L61.8802 424.322H0.126465V283.025H62.6346L65.2676 284.979C67.298 286.486 67.331 289.463 65.3309 291.013L64.5511 291.614C55.6243 293.509 49.257 298.443 49.257 304.235C49.257 311.663 59.7333 317.682 72.6552 317.682C85.5771 317.682 96.0533 311.661 96.0533 304.235C96.0533 298.446 89.686 293.509 80.7592 291.614L79.9794 291.013C77.9794 289.463 78.0123 286.486 80.0427 284.979L82.6757 283.025H144.829V283.131H144.86V343.607L142.758 346.318C141.217 348.304 138.174 348.336 136.589 346.38L135.973 345.617C134.037 336.887 128.991 330.66 123.069 330.66C115.474 330.66 109.32 340.906 109.32 353.543H109.325Z" stroke="white" stroke-opacity="0.25" stroke-miterlimit="10"/>
<path d="M180.405 495.098C180.405 507.736 174.248 517.982 166.655 517.982C160.736 517.982 155.688 511.754 153.751 503.024L153.136 502.261C151.551 500.305 148.508 500.335 146.966 502.323L144.865 505.034V565.876H0.126465V424.319H61.9612L64.9461 426.533C66.9765 428.041 67.0094 431.017 65.0094 432.567L64.2296 433.169C55.3028 435.063 48.9355 439.998 48.9355 445.789C48.9355 453.218 59.4117 459.237 72.3336 459.237H72.4552C85.3213 459.2 95.7343 453.193 95.7343 445.789C95.7343 440 89.367 435.063 80.4402 433.169L79.6604 432.567C77.6604 431.017 77.6933 428.041 79.7237 426.533L82.7086 424.319H144.867V485.161L146.969 487.873C148.511 489.858 151.554 489.891 153.139 487.935L153.754 487.172C155.69 478.441 160.736 472.214 166.658 472.214C174.251 472.214 180.408 482.46 180.408 495.098H180.405Z" stroke="white" stroke-opacity="0.25" stroke-miterlimit="10"/>
<path d="M325.078 495.098C325.078 507.736 318.921 517.982 311.328 517.982C305.409 517.982 300.361 511.754 298.424 503.024L297.809 502.261C296.224 500.305 293.181 500.335 291.639 502.323L289.538 505.034V565.876H144.799V505.034L146.901 502.323C148.442 500.337 151.486 500.305 153.07 502.261L153.686 503.024C155.622 511.754 160.668 517.982 166.59 517.982C174.182 517.982 180.34 507.736 180.34 495.098C180.34 482.46 174.182 472.214 166.59 472.214C160.671 472.214 155.622 478.441 153.686 487.172L153.07 487.935C151.486 489.891 148.442 489.861 146.901 487.873L144.799 485.161V424.319H206.634L209.619 426.533C211.649 428.041 211.682 431.017 209.682 432.567L208.902 433.169C199.976 435.063 193.608 439.998 193.608 445.789C193.608 453.218 204.085 459.237 217.006 459.237C229.928 459.237 240.405 453.215 240.405 445.789C240.405 440 234.037 435.063 225.111 433.169L224.331 432.567C222.331 431.017 222.361 428.041 224.394 426.533L227.379 424.319H289.538V485.161L291.639 487.873C293.181 489.858 296.224 489.891 297.809 487.935L298.424 487.172C300.361 478.441 305.407 472.214 311.328 472.214C318.921 472.214 325.078 482.46 325.078 495.098Z" stroke="white" stroke-opacity="0.25" stroke-miterlimit="10"/>
<path d="M469.75 495.098C469.75 507.736 463.593 517.982 456.001 517.982C450.081 517.982 445.033 511.754 443.096 503.024L442.481 502.261C440.896 500.305 437.853 500.335 436.311 502.323L434.21 505.034V565.876H289.472V505.034L291.573 502.323C293.115 500.337 296.158 500.305 297.743 502.261L298.358 503.024C300.295 511.754 305.34 517.982 311.262 517.982C318.855 517.982 325.012 507.736 325.012 495.098C325.012 482.46 318.855 472.214 311.262 472.214C305.343 472.214 300.295 478.441 298.358 487.172L297.743 487.935C296.158 489.891 293.115 489.861 291.573 487.873L289.472 485.161V424.319H351.306L354.291 426.533C356.322 428.041 356.355 431.017 354.355 432.567L353.575 433.169C344.648 435.063 338.281 439.998 338.281 445.789C338.281 453.218 348.757 459.237 361.679 459.237C363.552 459.237 365.378 459.111 367.125 458.868C367.282 458.846 367.438 458.826 367.593 458.804C377.651 457.296 385.077 452.039 385.077 445.787C385.077 439.998 378.71 435.061 369.783 433.166L369.003 432.565C367.003 431.015 367.033 428.038 369.066 426.53L372.051 424.317H434.21V485.159L436.311 487.87C437.853 489.856 440.896 489.888 442.481 487.932L443.096 487.169C445.033 478.439 450.079 472.212 456.001 472.212C463.593 472.212 469.75 482.458 469.75 495.095V495.098Z" stroke="white" stroke-opacity="0.25" stroke-miterlimit="10"/>
<path d="M543.019 495.098C543.019 507.736 549.176 517.982 556.768 517.982C562.688 517.982 567.736 511.754 569.673 503.024L570.288 502.261C571.873 500.305 574.916 500.335 576.458 502.323L578.721 505.242L578.883 505.034V565.876H434.145V505.034L436.246 502.323C437.788 500.337 440.831 500.305 442.416 502.261L443.031 503.024C444.968 511.754 450.013 517.982 455.935 517.982C463.528 517.982 469.685 507.736 469.685 495.098C469.685 482.46 463.528 472.214 455.935 472.214C450.016 472.214 444.968 478.441 443.031 487.172L442.416 487.935C440.831 489.891 437.788 489.861 436.246 487.873L434.145 485.161V424.319H495.979L498.964 426.533C500.995 428.041 501.028 431.017 499.027 432.567L498.248 433.169C489.321 435.063 482.954 439.998 482.954 445.789C482.954 453.218 493.43 459.237 506.352 459.237C507.815 459.237 509.248 459.16 510.638 459.012C510.78 458.997 510.924 458.982 511.068 458.964C521.729 457.712 529.752 452.287 529.752 445.789C529.752 440 523.385 435.063 514.458 433.169L513.679 432.567C511.678 431.017 511.709 428.041 513.742 426.533L516.727 424.319H578.886V485.161L578.723 484.953L576.46 487.873C574.918 489.858 571.875 489.891 570.29 487.935L569.675 487.172C567.738 478.441 562.693 472.214 556.771 472.214C549.178 472.214 543.021 482.46 543.021 495.098H543.019Z" stroke="white" stroke-opacity="0.25" stroke-miterlimit="10"/>
<path d="M724.603 424.002V484.844L724.441 484.637L722.177 487.556C720.635 489.542 717.592 489.574 716.008 487.618L715.392 486.855C713.456 478.124 708.41 471.897 702.488 471.897C694.895 471.897 688.738 482.143 688.738 494.781C688.738 507.419 694.895 517.665 702.488 517.665C708.407 517.665 713.456 511.437 715.392 502.707L716.008 501.944C717.592 499.988 720.635 500.018 722.177 502.006L724.441 504.925L724.603 504.717V565.559H579.864V504.717L579.702 504.925L577.439 502.006C575.897 500.02 572.854 499.988 571.269 501.944L570.654 502.707C568.717 511.437 563.671 517.665 557.75 517.665C550.155 517.665 544 507.419 544 494.781C544 482.143 550.157 471.897 557.75 471.897C563.669 471.897 568.717 478.124 570.654 486.855L571.269 487.618C572.854 489.574 575.897 489.544 577.439 487.556L579.702 484.637L579.864 484.844V424.002H641.699L641.823 424.094L644.684 426.216C645.335 426.699 645.783 427.335 646.021 428.026C646.527 429.489 646.104 431.2 644.747 432.25L643.967 432.852C635.041 434.746 628.673 439.681 628.673 445.472C628.673 446.426 628.848 447.357 629.175 448.253C629.205 448.337 629.238 448.424 629.271 448.508C631.668 454.473 640.965 458.92 652.071 458.92C664.993 458.92 675.47 452.898 675.47 445.472C675.47 444.569 675.315 443.687 675.021 442.835C674.999 442.779 674.981 442.724 674.958 442.667C673.285 438.126 667.621 434.434 660.175 432.852L659.396 432.25C658.839 431.819 658.441 431.277 658.196 430.688C658.18 430.648 658.165 430.609 658.15 430.567C657.591 429.061 658.029 427.273 659.456 426.214L662.317 424.092L662.441 424H724.6L724.603 424.002Z" fill="white" stroke="white" stroke-opacity="0.25" stroke-miterlimit="10"/>
<path d="M868.873 424.319V565.876H724.135V505.034L723.973 505.242L721.709 502.323C720.168 500.337 717.125 500.305 715.54 502.261L714.924 503.024C712.988 511.754 707.942 517.982 702.02 517.982C694.428 517.982 688.271 507.736 688.271 495.098C688.271 482.46 694.428 472.214 702.02 472.214C707.939 472.214 712.988 478.441 714.924 487.172L715.54 487.935C717.125 489.891 720.168 489.861 721.709 487.873L723.973 484.953L724.135 485.161V424.319H785.97L786.111 424.426L786.256 424.532L788.952 426.533C788.997 426.568 789.043 426.605 789.089 426.642C790.982 428.177 790.967 431.054 789.013 432.57L788.233 433.171C779.306 435.065 772.939 440 772.939 445.792C772.939 448.488 774.321 451.001 776.698 453.109C776.774 453.175 776.855 453.242 776.934 453.312C777.233 453.567 777.549 453.817 777.878 454.057C782.159 457.214 788.835 459.239 796.334 459.239C798.828 459.239 801.231 459.014 803.484 458.598C803.97 458.511 804.444 458.415 804.914 458.308C813.591 456.34 819.733 451.479 819.733 445.792C819.733 442.969 818.221 440.349 815.636 438.19C815.555 438.118 815.469 438.052 815.386 437.982C815.307 437.92 815.231 437.858 815.153 437.799C815.074 437.737 814.996 437.675 814.915 437.616C814.834 437.554 814.748 437.492 814.662 437.43C812.023 435.521 808.494 434.033 804.441 433.174L804.393 433.137L803.661 432.572C803.661 432.572 803.656 432.567 803.654 432.565C803.59 432.518 803.532 432.468 803.474 432.419C801.664 430.834 801.757 427.994 803.722 426.538L806.418 424.537L806.563 424.431L806.704 424.324H868.863L868.873 424.319Z" stroke="white" stroke-opacity="0.25" stroke-miterlimit="10"/>
<path d="M109.325 212.246C109.325 224.884 115.482 235.13 123.074 235.13C128.994 235.13 134.042 228.903 135.979 220.172L136.594 219.41C138.179 217.453 141.222 217.483 142.764 219.471L144.835 222.143V282.765H82.6808L82.8555 282.894L82.6808 283.022L80.0478 284.976C78.0174 286.484 77.9844 289.46 79.9845 291.01L80.7643 291.612C89.6911 293.506 96.0584 298.441 96.0584 304.232C96.0584 311.66 85.5821 317.68 72.6602 317.68C59.7383 317.68 49.2621 311.658 49.2621 304.232C49.2621 298.443 55.6294 293.506 64.5562 291.612L65.336 291.01C67.336 289.46 67.3057 286.484 65.2727 284.976L62.6397 283.022L62.465 282.894L62.6397 282.765H0.126465V141.681H62.5713L62.427 141.574L62.5713 141.468L65.2676 139.467C67.2981 137.959 67.331 134.983 65.3309 133.433L64.5511 132.831C55.6243 130.937 49.257 126.002 49.257 120.211C49.257 112.783 59.7333 106.763 72.6552 106.763C85.5771 106.763 96.0533 112.785 96.0533 120.211C96.0533 126 89.6861 130.937 80.7592 132.831L79.9794 133.433C77.9794 134.983 78.0123 137.959 80.0427 139.467L82.739 141.468L82.8833 141.574L82.739 141.681H144.829V202.349L142.758 205.021C141.217 207.007 138.174 207.039 136.589 205.083L135.973 204.32C134.037 195.59 128.991 189.362 123.069 189.362C115.474 189.362 109.32 199.608 109.32 212.246H109.325Z" stroke="white" stroke-opacity="0.25" stroke-miterlimit="10"/>
<path d="M325.349 212.469C325.349 225.107 319.192 235.353 311.599 235.353C305.68 235.353 300.632 229.126 298.695 220.395L298.08 219.633C296.495 217.676 293.452 217.706 291.91 219.694L289.646 222.614V222.522L289.517 222.356L289.484 222.312V283.196H227.683L227.391 282.978L227.417 282.958H227.764L227.589 282.829L227.764 282.701H227.014L227.364 282.961L227.389 282.98L224.779 284.914C222.748 286.422 222.715 289.398 224.715 290.948L225.495 291.55C234.422 293.444 240.789 298.379 240.789 304.171C240.789 311.596 230.313 317.618 217.391 317.618C204.469 317.618 193.993 311.596 193.993 304.171C193.993 298.381 200.36 293.444 209.287 291.55L210.067 290.948C212.067 289.398 212.034 286.422 210.004 284.914L207.371 282.961L207.312 282.918L207.606 282.701H207.019L207.193 282.829L207.019 282.958H207.252L206.935 283.193H144.779V283.087H144.809V222.245L144.779 222.205L142.708 219.533C141.166 217.548 138.123 217.515 136.538 219.472L135.923 220.234C133.986 228.965 128.941 235.192 123.019 235.192C115.426 235.192 109.269 224.946 109.269 212.308C109.269 199.67 115.426 189.424 123.019 189.424C128.938 189.424 133.986 195.652 135.923 204.382L136.538 205.145C138.123 207.101 141.166 207.071 142.708 205.083L144.779 202.411L144.809 202.372V141.743H207.074L207.021 141.703L207.107 141.636L209.948 139.529C211.978 138.021 212.011 135.045 210.011 133.495L209.231 132.893C200.305 130.999 193.937 126.064 193.937 120.273C193.937 112.847 204.414 106.825 217.335 106.825C230.257 106.825 240.734 112.847 240.734 120.273C240.734 126.062 234.366 130.999 225.44 132.893L224.66 133.495C222.66 135.045 222.693 138.021 224.723 139.529L227.564 141.636L227.617 141.676L227.531 141.743H289.477V202.52L289.51 202.476L289.669 202.27V202.362L291.9 205.239C293.441 207.225 296.485 207.257 298.069 205.301L298.685 204.538C300.621 195.808 305.667 189.58 311.589 189.58C319.181 189.58 325.339 199.826 325.339 212.464L325.349 212.469Z" stroke="white" stroke-opacity="0.25" stroke-miterlimit="10"/>
<path d="M227.989 282.958L227.814 282.829L227.989 282.7H227.237L227.589 282.958L227.614 282.978L227.642 282.958H227.989Z" stroke="white" stroke-opacity="0.25" stroke-miterlimit="10"/>
<path d="M267.902 330.528C273.821 330.528 278.869 336.755 280.806 345.486L281.421 346.249C283.006 348.205 286.049 348.175 287.591 346.187L289.452 343.787V283.195H227.908L227.617 282.978L225.007 284.911C222.976 286.419 222.943 289.396 224.943 290.946L225.723 291.547C234.65 293.441 241.017 298.376 241.017 304.168C241.017 311.596 230.541 317.615 217.619 317.615C204.697 317.615 194.221 311.593 194.221 304.168C194.221 298.379 200.588 293.441 209.515 291.547L210.295 290.946C212.295 289.396 212.262 286.419 210.231 284.911L207.598 282.958L207.54 282.916L207.834 282.698H207.247L207.421 282.826L207.247 282.955H207.479L207.163 283.19H145.007V283.084H145.037V282.631H144.713V343.852L142.804 346.313C141.262 348.299 138.219 348.331 136.634 346.375L136.019 345.612C134.082 336.882 129.037 330.654 123.115 330.654C115.522 330.654 109.365 340.9 109.365 353.538C109.365 366.176 115.522 376.422 123.115 376.422C129.034 376.422 134.082 370.195 136.019 361.464L136.634 360.701C138.219 358.745 141.262 358.775 142.804 360.763L144.713 363.224V424.185H206.467L209.452 426.399C210.892 427.469 211.328 429.276 210.743 430.791C210.733 430.819 210.723 430.846 210.715 430.871C210.472 431.46 210.075 432 209.515 432.433L208.735 433.035C201.294 434.612 195.631 438.309 193.953 442.847C193.93 442.902 193.912 442.959 193.892 443.013C193.596 443.868 193.441 444.752 193.441 445.655C193.441 453.081 203.917 459.103 216.839 459.103C227.946 459.103 237.242 454.656 239.64 448.691C239.668 448.619 239.696 448.55 239.718 448.478C240.058 447.567 240.237 446.623 240.237 445.653C240.237 439.864 233.87 434.927 224.943 433.032L224.164 432.431C222.809 431.378 222.386 429.67 222.888 428.209C223.126 427.516 223.574 426.879 224.227 426.394L227.212 424.18H289.449V363.029L287.588 360.63C286.046 358.644 283.003 358.612 281.418 360.568L280.803 361.33C278.866 370.061 273.821 376.288 267.899 376.288C260.304 376.288 254.149 366.042 254.149 353.404C254.149 340.767 260.306 330.521 267.899 330.521L267.902 330.528Z" stroke="white" stroke-opacity="0.25" stroke-miterlimit="10"/>
<path d="M398.986 212.405C398.986 225.043 405.144 235.289 412.736 235.289C418.655 235.289 423.704 229.061 425.64 220.331L426.256 219.568C427.84 217.612 430.884 217.642 432.425 219.63L434.496 222.299V283.183H372.694L372.449 283.002L372.388 282.958L372.1 282.743L369.712 280.97C368.768 280.269 368.254 279.251 368.18 278.209C368.092 277.003 368.578 275.765 369.649 274.933L370.429 274.331C379.355 272.437 385.723 267.502 385.723 261.711C385.723 261.438 385.708 261.168 385.68 260.901C384.953 253.852 374.773 248.263 362.325 248.263C349.876 248.263 338.926 254.285 338.926 261.711C338.926 261.936 338.937 262.161 338.957 262.387C339.428 267.881 345.641 272.511 354.221 274.331L355 274.933C355.864 275.604 356.35 276.537 356.459 277.506C356.459 277.516 356.459 277.528 356.459 277.538C356.59 278.803 356.079 280.118 354.937 280.967L352.55 282.74L352.243 282.965L352.2 282.998L351.955 283.178H289.796V283.126H289.829V222.287L289.958 222.453V222.544L292.221 219.625C293.763 217.639 296.806 217.607 298.391 219.563L299.006 220.326C300.943 229.056 305.989 235.284 311.91 235.284C319.503 235.284 325.66 225.038 325.66 212.4C325.66 199.762 319.503 189.516 311.91 189.516C305.991 189.516 300.943 195.743 299.006 204.474L298.391 205.237C296.806 207.193 293.763 207.163 292.221 205.175L289.991 202.297V202.206L289.831 202.411V141.678H352.026L352.094 141.624L355.005 139.465C357.036 137.957 357.069 134.981 355.069 133.43L354.289 132.829C345.362 130.935 338.995 126 338.995 120.208C338.995 112.78 349.471 106.761 362.393 106.761C375.315 106.761 385.791 112.783 385.791 120.208C385.791 125.997 379.424 130.935 370.497 132.829L369.717 133.43C367.717 134.981 367.748 137.957 369.78 139.465L372.692 141.624L372.624 141.678H434.499V202.508L432.428 205.177C430.886 207.163 427.843 207.195 426.258 205.239L425.643 204.476C423.706 195.746 418.66 189.518 412.739 189.518C405.144 189.518 398.989 199.764 398.989 212.402L398.986 212.405Z" stroke="white" stroke-opacity="0.25" stroke-miterlimit="10"/>
<path d="M615.01 212.509C615.01 225.147 608.853 235.393 601.26 235.393C595.341 235.393 590.293 229.165 588.356 220.435L587.741 219.672C586.156 217.716 583.113 217.746 581.571 219.734L579.308 222.653V222.557L579.181 222.391L579.151 222.349V283.233H517.349L517.058 283.015L517.033 282.997L516.683 282.737L514.364 281.017C512.929 279.949 512.493 278.149 513.065 276.641C513.301 276.015 513.714 275.438 514.301 274.982L515.081 274.381C522.699 272.764 528.451 268.933 529.975 264.249C530.238 263.444 530.375 262.612 530.375 261.763C530.375 254.337 519.899 248.315 506.977 248.315C495.703 248.315 486.293 252.896 484.075 258.994C483.748 259.888 483.579 260.814 483.579 261.763C483.579 267.552 489.943 272.489 498.873 274.383L499.652 274.985C500.969 276.008 501.407 277.649 500.966 279.08C500.741 279.821 500.28 280.504 499.589 281.019L497.27 282.74L496.976 282.958L496.921 283L496.604 283.233H434.445V283.181H434.476V222.339L434.445 222.297L432.374 219.627C430.833 217.642 427.79 217.609 426.205 219.565L425.589 220.328C423.653 229.059 418.607 235.286 412.685 235.286C405.09 235.286 398.936 225.04 398.936 212.402C398.936 199.764 405.093 189.518 412.685 189.518C418.604 189.518 423.653 195.746 425.589 204.476L426.205 205.239C427.79 207.195 430.833 207.165 432.374 205.177L434.445 202.508L434.476 202.466V141.678H496.604L499.587 143.889C501.617 145.397 501.65 148.374 499.65 149.924L498.87 150.525C489.943 152.419 483.576 157.354 483.576 163.146C483.576 170.571 494.052 176.593 506.974 176.593C519.896 176.593 530.372 170.571 530.372 163.146C530.372 157.357 524.005 152.419 515.078 150.525L514.298 149.924C512.298 148.374 512.329 145.397 514.362 143.889L517.344 141.678H579.181V141.73H579.151V202.56L579.181 202.518L579.343 202.31V202.406L581.571 205.281C583.113 207.267 586.156 207.299 587.741 205.343L588.356 204.58C590.293 195.85 595.339 189.622 601.26 189.622C608.856 189.622 615.01 199.868 615.01 212.506V212.509Z" stroke="white" stroke-opacity="0.25" stroke-miterlimit="10"/>
<path d="M724.186 283.077V283.287H662.348L662.017 283.042L659.283 285.068C657.252 286.575 657.219 289.552 659.219 291.102L659.999 291.703C668.926 293.598 675.293 298.532 675.293 304.324C675.293 311.752 664.817 317.771 651.895 317.771C638.973 317.771 628.497 311.752 628.497 304.324C628.497 298.535 634.864 293.598 643.791 291.703L644.571 291.102C646.571 289.552 646.54 286.575 644.507 285.068L641.854 283.099L641.604 283.285H579.447V283.23H579.478V222.388L579.604 222.554V222.651L581.868 219.731C583.409 217.746 586.453 217.713 588.037 219.67L588.653 220.432C590.589 229.163 595.635 235.39 601.557 235.39C609.149 235.39 615.307 225.144 615.307 212.506C615.307 199.868 609.149 189.622 601.557 189.622C595.638 189.622 590.589 195.85 588.653 204.58L588.037 205.343C586.453 207.299 583.409 207.269 581.868 205.281L579.64 202.406V202.31L579.478 202.518V141.678H641.733L644.718 139.465C646.748 137.957 646.781 134.981 644.781 133.43L644.001 132.829C635.074 130.935 628.707 126 628.707 120.208C628.707 112.78 639.183 106.761 652.105 106.761C665.027 106.761 675.503 112.783 675.503 120.208C675.503 125.997 669.136 130.935 660.209 132.829L659.429 133.43C657.429 134.981 657.46 137.957 659.493 139.465L662.478 141.678H724.15V202.614L722.079 205.284C720.537 207.269 717.494 207.302 715.909 205.345L715.294 204.583C713.358 195.852 708.312 189.625 702.39 189.625C694.795 189.625 688.64 199.871 688.64 212.509C688.64 225.147 694.797 235.393 702.39 235.393C708.309 235.393 713.358 229.165 715.294 220.435L715.909 219.672C717.494 217.716 720.537 217.746 722.079 219.734L724.15 222.403V283.077H724.183H724.186Z" stroke="white" stroke-opacity="0.25" stroke-miterlimit="10"/>
<path d="M868.874 141.681V283.079H807.039L806.915 282.988L806.857 282.945L806.566 282.728L804.054 280.866C802.024 279.358 801.991 276.381 803.991 274.831L804.029 274.802L804.771 274.23C809.153 273.299 812.925 271.635 815.622 269.495C815.756 269.391 815.887 269.282 816.016 269.174C818.571 267.017 820.065 264.415 820.065 261.609C820.065 254.183 809.588 248.162 796.667 248.162C788.995 248.162 782.188 250.284 777.922 253.559C777.846 253.616 777.772 253.676 777.699 253.735C774.911 255.949 773.268 258.668 773.268 261.612C773.268 267.401 779.636 272.338 788.562 274.232L789.342 274.834C791.269 276.327 791.312 279.147 789.494 280.697C789.423 280.757 789.355 280.816 789.279 280.87L786.767 282.732L786.59 282.866L786.418 282.992L786.294 283.084H724.171V222.455L724.138 222.41L722.067 219.741C720.525 217.755 717.482 217.723 715.897 219.679L715.282 220.442C713.345 229.173 708.299 235.4 702.378 235.4C694.785 235.4 688.628 225.154 688.628 212.516C688.628 199.878 694.785 189.632 702.378 189.632C708.297 189.632 713.345 195.86 715.282 204.59L715.897 205.353C717.482 207.309 720.525 207.279 722.067 205.291L724.138 202.622L724.171 202.577V141.738H724.138V141.686H786.507L789.279 143.741C791.309 145.249 791.342 148.225 789.342 149.775L788.562 150.377C779.636 152.271 773.268 157.206 773.268 162.997C773.268 170.425 783.745 176.445 796.667 176.445C809.588 176.445 820.065 170.423 820.065 162.997C820.065 157.208 813.697 152.271 804.771 150.377L803.991 149.775C801.991 148.225 802.021 145.249 804.054 143.741L806.826 141.686H868.874V141.681Z" stroke="white" stroke-opacity="0.25" stroke-miterlimit="10"/>
</g>
<defs>
<clipPath id="clip0_166_183">
<rect width="869" height="566" fill="white"/>
</clipPath>
</defs>
</svg>
