<svg width="866" height="630" viewBox="0 0 866 630" fill="none" xmlns="http://www.w3.org/2000/svg">
<g clip-path="url(#clip0_166_270)">
<path d="M756.383 393.468C756.383 407.534 750.212 418.939 742.602 418.939C736.669 418.939 731.609 412.007 729.668 402.29L729.051 401.441C727.463 399.263 724.413 399.299 722.867 401.51L720.68 404.643V404.902L720.52 404.674L720.439 404.555V472.246H720.52V472.288H658.107L657.982 472.39L655.115 474.752C653.684 475.931 653.245 477.921 653.805 479.597C653.821 479.641 653.836 479.685 653.851 479.732C654.087 480.426 654.498 481.069 655.087 481.573L655.868 482.243C663.278 483.99 668.927 488.058 670.652 493.066C670.675 493.129 670.693 493.19 670.716 493.253C671.01 494.201 671.165 495.182 671.165 496.188C671.165 504.454 660.664 511.156 647.713 511.156C636.581 511.156 627.263 506.206 624.86 499.567C624.827 499.473 624.794 499.377 624.763 499.283C624.456 498.316 624.294 497.313 624.294 496.29C624.294 489.847 630.676 484.351 639.623 482.243L640.405 481.573C641.795 480.377 642.206 478.417 641.648 476.766C641.41 475.997 640.96 475.292 640.308 474.752L637.441 472.39L637.316 472.288H575.454V472.26H575.644V404.855L575.756 404.698L575.806 404.773V404.624L577.882 401.653C579.427 399.443 582.478 399.41 584.066 401.584L584.683 402.433C586.624 412.151 591.681 419.082 597.617 419.082C605.229 419.082 611.398 407.68 611.398 393.611C611.398 379.541 605.227 368.139 597.617 368.139C591.684 368.139 586.624 375.071 584.683 384.789L584.066 385.638C582.478 387.815 579.427 387.779 577.882 385.569L575.806 382.598V382.19L575.664 382.391L575.644 382.363V315.309H637.832L638.083 315.102L640.742 317.293C642.777 318.971 642.81 322.284 640.806 324.01L640.024 324.679C631.077 326.788 624.695 332.28 624.695 338.727C624.695 346.995 635.195 353.695 648.147 353.695C661.098 353.695 671.599 346.995 671.599 338.727C671.599 332.283 665.217 326.788 656.269 324.679L655.488 324.01C653.483 322.284 653.514 318.971 655.551 317.293L658.292 315.039L658.624 315.311H720.441V382.667L720.523 382.548L720.601 382.435V382.176L722.87 385.425C724.415 387.636 727.465 387.672 729.054 385.494L729.67 384.645C731.612 374.928 736.669 367.996 742.604 367.996C750.214 367.996 756.386 379.401 756.386 393.468H756.383Z" stroke="white" stroke-opacity="0.25" stroke-miterlimit="10"/>
<path d="M865.873 0.137695V157.701H865.711V157.525H803.683L803.708 157.547L803.523 157.701L800.745 159.989C798.709 161.667 798.676 164.98 800.681 166.705L801.463 167.375C810.41 169.483 816.792 174.976 816.792 181.422C816.792 189.691 806.292 196.391 793.34 196.391C780.388 196.391 769.888 189.688 769.888 181.422C769.888 174.979 776.27 169.483 785.217 167.375L785.999 166.705C788.004 164.98 787.973 161.667 785.935 159.989L783.157 157.701L783.131 157.679L783.317 157.525H720.804V89.9794L718.698 86.9616C717.153 84.7512 714.103 84.7154 712.514 86.8927L711.897 87.7415C709.956 97.4593 704.899 104.391 698.964 104.391C691.351 104.391 685.182 92.9863 685.182 78.9194C685.182 64.8525 691.353 53.448 698.964 53.448C704.896 53.448 709.956 60.3794 711.897 70.0973L712.514 70.9461C714.103 73.1234 717.153 73.0876 718.698 70.8772L720.804 67.8594V0.137695H865.876H865.873Z" stroke="white" stroke-opacity="0.25" stroke-miterlimit="10"/>
<path d="M203.043 314.738L203.16 314.835L203.102 314.882H202.868L203.043 314.738Z" stroke="white" stroke-opacity="0.25" stroke-miterlimit="10"/>
<path d="M223.661 314.882H223.313L223.488 314.738L223.661 314.882Z" stroke="white" stroke-opacity="0.25" stroke-miterlimit="10"/>
<path d="M202.868 314.592H203.457L203.16 314.835L202.868 314.592Z" stroke="white" stroke-opacity="0.25" stroke-miterlimit="10"/>
<path d="M223.661 314.592L223.288 314.904L222.91 314.592H223.661Z" stroke="white" stroke-opacity="0.25" stroke-miterlimit="10"/>
<path d="M57.7485 314.738H58.0991L57.9263 314.882L57.7485 314.738Z" stroke="white" stroke-opacity="0.25" stroke-miterlimit="10"/>
<path d="M78.544 314.738L78.3662 314.882L78.1909 314.738H78.544Z" stroke="white" stroke-opacity="0.25" stroke-miterlimit="10"/>
<path d="M783.172 314.697L782.994 314.846L782.989 314.84L782.812 314.697H783.172Z" stroke="white" stroke-opacity="0.25" stroke-miterlimit="10"/>
<path d="M637.509 472.404H575.522V472.299H637.387L637.509 472.404Z" stroke="white" stroke-opacity="0.25" stroke-miterlimit="10"/>
<path d="M720.593 472.299V472.404H658.056L658.18 472.299H720.593Z" stroke="white" stroke-opacity="0.25" stroke-miterlimit="10"/>
<path d="M202.868 314.592H203.457L203.16 314.835L202.868 314.592Z" stroke="white" stroke-opacity="0.25" stroke-miterlimit="10"/>
<path d="M223.661 314.592L223.288 314.904L222.91 314.592H223.661Z" stroke="white" stroke-opacity="0.25" stroke-miterlimit="10"/>
<path d="M203.457 314.592L203.16 314.835L203.218 314.882H202.868L203.043 314.738L203.218 314.592H203.457Z" stroke="white" stroke-opacity="0.25" stroke-miterlimit="10"/>
<path d="M223.661 314.882H223.26L222.91 314.592H223.311L223.488 314.738L223.661 314.882Z" stroke="white" stroke-opacity="0.25" stroke-miterlimit="10"/>
<path d="M57.5709 157.583L57.7155 157.701H-4.87305V157.464H57.7155L57.5709 157.583Z" stroke="white" stroke-opacity="0.25" stroke-miterlimit="10"/>
<path d="M140.518 157.464V157.701H78.2544L78.399 157.583L78.2544 157.464H140.518Z" stroke="white" stroke-opacity="0.25" stroke-miterlimit="10"/>
<path d="M285.559 157.583V225.299L285.524 225.348V157.701H223.438L223.524 157.627L223.47 157.583H285.559Z" stroke="white" stroke-opacity="0.25" stroke-miterlimit="10"/>
<path d="M285.559 247.427V315.143H285.523V247.377L285.559 247.427Z" stroke="white" stroke-opacity="0.25" stroke-miterlimit="10"/>
<path d="M430.595 157.641V225.36L430.565 225.406V157.701H368.547L368.613 157.643L368.61 157.641H430.595Z" stroke="white" stroke-opacity="0.25" stroke-miterlimit="10"/>
<path d="M430.596 247.482V315.201H430.565V247.436L430.596 247.482Z" stroke="white" stroke-opacity="0.25" stroke-miterlimit="10"/>
<path d="M575.634 157.698V157.701H513.657V157.698H575.634Z" stroke="white" stroke-opacity="0.25" stroke-miterlimit="10"/>
<path d="M575.634 157.759V225.418L575.603 225.464V157.759H575.634Z" stroke="white" stroke-opacity="0.25" stroke-miterlimit="10"/>
<path d="M575.634 247.54V315.259H575.603V247.493L575.634 247.54Z" stroke="white" stroke-opacity="0.25" stroke-miterlimit="10"/>
<path d="M575.603 157.759H575.634V225.418L575.603 225.464V157.759Z" stroke="white" stroke-opacity="0.25" stroke-miterlimit="10"/>
<path d="M575.603 247.493L575.634 247.54V315.259H575.603V247.493Z" stroke="white" stroke-opacity="0.25" stroke-miterlimit="10"/>
<path d="M720.675 157.759V225.475L720.639 225.525V157.759H720.675Z" stroke="white" stroke-opacity="0.25" stroke-miterlimit="10"/>
<path d="M720.639 247.554L720.675 247.603V315.085H720.639V247.554Z" stroke="white" stroke-opacity="0.25" stroke-miterlimit="10"/>
<path d="M58.0381 157.701H57.7485L57.8908 157.583L58.0381 157.701Z" stroke="white" stroke-opacity="0.25" stroke-miterlimit="10"/>
<path d="M78.544 157.701H78.2544L78.3992 157.583L78.544 157.701Z" stroke="white" stroke-opacity="0.25" stroke-miterlimit="10"/>
<path d="M58.0381 157.701H57.7485L57.8908 157.583L58.0381 157.701Z" stroke="white" stroke-opacity="0.25" stroke-miterlimit="10"/>
<path d="M78.544 157.701H78.2544L78.3992 157.583L78.544 157.701Z" stroke="white" stroke-opacity="0.25" stroke-miterlimit="10"/>
<path d="M202.929 157.7H202.82L202.876 157.654L202.929 157.7Z" stroke="white" stroke-opacity="0.25" stroke-miterlimit="10"/>
<path d="M223.613 157.701H223.438L223.524 157.627L223.613 157.701Z" stroke="white" stroke-opacity="0.25" stroke-miterlimit="10"/>
<path d="M202.929 157.7H202.82L202.876 157.654L202.929 157.7Z" stroke="white" stroke-opacity="0.25" stroke-miterlimit="10"/>
<path d="M223.613 157.701H223.438L223.524 157.627L223.613 157.701Z" stroke="white" stroke-opacity="0.25" stroke-miterlimit="10"/>
<path d="M347.894 157.698L347.897 157.701H347.892L347.894 157.698Z" stroke="white" stroke-opacity="0.25" stroke-miterlimit="10"/>
<path d="M368.684 157.701H368.547L368.613 157.644L368.684 157.701Z" stroke="white" stroke-opacity="0.25" stroke-miterlimit="10"/>
<path d="M347.894 157.699L347.897 157.702H347.892L347.894 157.699Z" stroke="white" stroke-opacity="0.25" stroke-miterlimit="10"/>
<path d="M368.685 157.701H368.547L368.613 157.644L368.685 157.701Z" stroke="white" stroke-opacity="0.25" stroke-miterlimit="10"/>
<path d="M513.756 157.701H513.657V157.698H513.753L513.756 157.701Z" stroke="white" stroke-opacity="0.25" stroke-miterlimit="10"/>
<path d="M513.756 157.701H513.657V157.698H513.753L513.756 157.701Z" stroke="white" stroke-opacity="0.25" stroke-miterlimit="10"/>
<path d="M783.152 157.701H783.104L783.128 157.679L783.152 157.701Z" stroke="white" stroke-opacity="0.25" stroke-miterlimit="10"/>
<path d="M803.896 157.701H803.521L803.708 157.544L803.896 157.701Z" stroke="white" stroke-opacity="0.25" stroke-miterlimit="10"/>
<path d="M783.152 157.701H783.104L783.128 157.679L783.152 157.701Z" stroke="white" stroke-opacity="0.25" stroke-miterlimit="10"/>
<path d="M803.896 157.701H803.521L803.708 157.544L803.896 157.701Z" stroke="white" stroke-opacity="0.25" stroke-miterlimit="10"/>
<path d="M321.473 78.9194C321.473 92.9863 315.302 104.391 307.692 104.391C301.759 104.391 296.699 97.4593 294.758 87.7415L294.141 86.8926C292.553 84.7154 289.503 84.7484 287.957 86.9615L285.689 90.2109L285.526 89.9794V157.701H223.549L223.461 157.627L223.407 157.583L220.56 155.237C218.525 153.559 218.492 150.246 220.497 148.521L221.278 147.851C230.226 145.743 236.608 140.25 236.608 133.803C236.608 125.535 226.107 118.835 213.156 118.835C200.204 118.835 189.704 125.538 189.704 133.803C189.704 140.247 196.086 145.743 205.033 147.851L205.814 148.521C207.819 150.246 207.789 153.559 205.751 155.237L202.904 157.583L202.818 157.657L202.762 157.701H140.46V89.9794L140.622 90.2109L142.891 86.9615C144.436 84.7512 147.486 84.7154 149.075 86.8926L149.692 87.7415C151.633 97.4593 156.69 104.391 162.625 104.391C170.238 104.391 176.407 92.9863 176.407 78.9194C176.407 64.8525 170.236 53.448 162.625 53.448C156.693 53.448 151.633 60.3794 149.692 70.0973L149.075 70.9461C147.486 73.1234 144.436 73.0876 142.891 70.8772L140.622 67.6279L140.46 67.8594V0.137695H285.531V67.8594L285.694 67.6279L287.962 70.8772C289.508 73.0876 292.558 73.1234 294.146 70.9461L294.763 70.0973C296.704 60.3794 301.762 53.448 307.697 53.448C315.31 53.448 321.478 64.8525 321.478 78.9194H321.473Z" stroke="white" stroke-opacity="0.25" stroke-miterlimit="10"/>
<path d="M395.235 78.9194C395.235 92.9863 401.406 104.391 409.016 104.391C414.949 104.391 420.009 97.4593 421.95 87.7415L422.566 86.8926C424.155 84.7154 427.205 84.7484 428.75 86.9615L430.857 89.9794V157.701H368.88L368.809 157.643L365.89 155.237C363.855 153.559 363.822 150.246 365.827 148.521L366.608 147.851C375.556 145.743 381.938 140.25 381.938 133.803C381.938 125.535 371.437 118.835 358.486 118.835C345.534 118.835 335.034 125.538 335.034 133.803C335.034 140.247 341.416 145.743 350.363 147.851L351.145 148.521C353.149 150.246 353.119 153.559 351.081 155.237L348.163 157.64L348.095 157.698H348.089H285.788V89.9767L285.95 90.2082L288.219 86.9588C289.764 84.7484 292.814 84.7126 294.403 86.8899L295.019 87.7388C296.96 97.4566 302.018 104.388 307.953 104.388C315.566 104.388 321.734 92.9835 321.734 78.9166C321.734 64.8498 315.563 53.4452 307.953 53.4452C302.02 53.4452 296.96 60.3767 295.019 70.0945L294.403 70.9434C292.814 73.1207 289.764 73.0848 288.219 70.8745L285.95 67.6251L285.788 67.8566V0.137695H430.859V67.8594L428.753 70.8772C427.208 73.0876 424.157 73.1234 422.569 70.9461L421.952 70.0973C420.011 60.3794 414.954 53.448 409.018 53.448C401.408 53.448 395.237 64.8525 395.237 78.9194H395.235Z" stroke="white" stroke-opacity="0.25" stroke-miterlimit="10"/>
<path d="M540.24 78.9194C540.24 92.9863 546.411 104.391 554.021 104.391C559.954 104.391 565.014 97.4593 566.955 87.7415L567.572 86.8927C569.16 84.7154 572.21 84.7484 573.756 86.9616L575.862 89.9794V157.701H575.765H513.788L510.799 160.165C508.764 161.843 508.731 165.156 510.736 166.882L511.517 167.551C520.465 169.66 526.847 175.152 526.847 181.599C526.847 189.864 516.346 196.567 503.395 196.567C490.443 196.567 479.943 189.864 479.943 181.599C479.943 175.155 486.322 169.66 495.272 167.551L496.053 166.882C498.058 165.156 498.028 161.843 495.99 160.165L493.001 157.704H493.097H430.795V89.9849L428.689 86.9671C427.144 84.7567 424.094 84.7209 422.505 86.8982L421.889 87.747C419.947 97.4649 414.89 104.396 408.955 104.396C401.345 104.396 395.173 92.9918 395.173 78.9249C395.173 64.858 401.345 53.4535 408.955 53.4535C414.888 53.4535 419.947 60.385 421.889 70.1028L422.505 70.9517C424.094 73.1289 427.144 73.0931 428.689 70.8828L430.795 67.8649V0.137695H575.867V67.8594L573.761 70.8772C572.215 73.0876 569.165 73.1234 567.577 70.9461L566.96 70.0973C565.019 60.3794 559.962 53.448 554.026 53.448C546.416 53.448 540.245 64.8525 540.245 78.9194H540.24Z" stroke="white" stroke-opacity="0.25" stroke-miterlimit="10"/>
<path d="M685.246 78.9194C685.246 92.9863 691.417 104.391 699.027 104.391C704.96 104.391 710.02 97.4593 711.961 87.7415L712.578 86.8926C714.166 84.7154 717.216 84.7484 718.762 86.9615L720.868 89.9794V157.701H658.891L655.899 155.237C653.864 153.559 653.831 150.246 655.836 148.521L656.617 147.851C665.565 145.743 671.946 140.25 671.946 133.803C671.946 125.535 661.446 118.835 648.494 118.835C635.543 118.835 625.042 125.538 625.042 133.803C625.042 140.247 631.424 145.743 640.372 147.851L641.153 148.521C643.158 150.246 643.125 153.559 641.09 155.237L638.098 157.701H575.799V89.9794L573.693 86.9615C572.147 84.7512 569.097 84.7154 567.509 86.8926L566.892 87.7415C564.951 97.4593 559.894 104.391 553.958 104.391C546.346 104.391 540.177 92.9863 540.177 78.9194C540.177 64.8525 546.348 53.448 553.958 53.448C559.891 53.448 564.951 60.3794 566.892 70.0973L567.509 70.9461C569.097 73.1234 572.147 73.0876 573.693 70.8772L575.799 67.8594V0.137695H720.87V67.8594L718.764 70.8772C717.219 73.0876 714.169 73.1234 712.58 70.9461L711.964 70.0973C710.022 60.3794 704.965 53.448 699.03 53.448C691.42 53.448 685.248 64.8525 685.248 78.9194H685.246Z" stroke="white" stroke-opacity="0.25" stroke-miterlimit="10"/>
<path d="M176.143 78.9194C176.143 92.9863 169.971 104.391 162.361 104.391C156.429 104.391 151.369 97.4593 149.428 87.7415L148.811 86.8926C147.222 84.7154 144.172 84.7484 142.627 86.9615L140.358 90.2109L140.196 89.9794V157.701H78.2189L78.0768 157.583L77.9322 157.464L75.2297 155.237C73.1946 153.559 73.1616 150.246 75.1662 148.521L75.9478 147.851C84.8952 145.743 91.2771 140.25 91.2771 133.803C91.2771 125.535 80.7767 118.835 67.8251 118.835C54.8735 118.835 44.3731 125.538 44.3731 133.803C44.3731 140.247 50.755 145.743 59.7024 147.851L60.484 148.521C62.4886 150.246 62.4582 153.559 60.4205 155.237L57.7181 157.464L57.5734 157.583L57.4313 157.701H-4.87305V0.137695H140.198V67.8594L140.361 67.6279L142.629 70.8772C144.175 73.0876 147.225 73.1234 148.813 70.9461L149.43 70.0973C151.371 60.3794 156.429 53.448 162.364 53.448C169.974 53.448 176.145 64.8525 176.145 78.9194H176.143Z" stroke="white" stroke-opacity="0.25" stroke-miterlimit="10"/>
<path d="M865.759 314.697V315.088H803.782L803.657 314.986H803.543L803.599 314.939L803.307 314.697L800.79 312.624C798.755 310.946 798.722 307.633 800.726 305.908L800.765 305.875C800.79 305.85 800.815 305.828 800.841 305.806L801.622 305.136C805.956 304.116 809.689 302.3 812.384 299.968C812.518 299.853 812.65 299.731 812.78 299.61C815.34 297.21 816.837 294.313 816.837 291.19C816.837 290.625 816.789 290.066 816.69 289.517C816.677 289.438 816.665 289.363 816.65 289.283C816.624 289.156 816.596 289.032 816.568 288.911C816.518 288.693 816.457 288.478 816.391 288.264C816.035 287.117 815.475 286.015 814.729 284.978C814.589 284.783 814.444 284.59 814.292 284.397C813.434 283.322 812.379 282.324 811.158 281.42C811.034 281.332 810.912 281.241 810.785 281.153C810.407 280.888 810.016 280.629 809.613 280.384C809.481 280.301 809.341 280.219 809.204 280.136C808.913 279.965 808.613 279.8 808.306 279.637C808.035 279.499 807.761 279.359 807.479 279.221C806.88 278.934 806.261 278.664 805.619 278.413C805.456 278.35 805.297 278.289 805.132 278.229C804.992 278.176 804.85 278.124 804.708 278.074C804.66 278.058 804.611 278.041 804.566 278.025C804.259 277.92 803.949 277.818 803.634 277.719C803.464 277.666 803.294 277.614 803.122 277.565C802.972 277.52 802.822 277.479 802.673 277.435C802.262 277.322 801.843 277.217 801.417 277.118C801.099 277.044 800.78 276.977 800.46 276.911C799.876 276.793 799.285 276.691 798.681 276.603C798.493 276.575 798.303 276.548 798.113 276.523C797.889 276.495 797.669 276.465 797.443 276.44C797.28 276.421 797.118 276.407 796.956 276.39C796.608 276.357 796.26 276.327 795.905 276.305C795.763 276.294 795.623 276.283 795.479 276.277C795.382 276.269 795.286 276.264 795.187 276.261C795.022 276.253 794.857 276.244 794.695 276.239C794.522 276.231 794.355 276.228 794.182 276.225C794.053 276.22 793.921 276.217 793.789 276.217C793.715 276.217 793.644 276.217 793.568 276.217H793.385C785.697 276.217 778.873 278.579 774.597 282.225C774.521 282.288 774.448 282.355 774.374 282.421C771.649 284.865 770.045 287.853 770.045 291.083C770.045 294.556 771.897 297.75 775.003 300.288C775.072 300.346 775.14 300.401 775.211 300.456C775.28 300.514 775.351 300.569 775.422 300.624C778.036 302.639 781.456 304.21 785.374 305.131L785.491 305.23L786.156 305.8C788.128 307.498 788.13 310.728 786.194 312.429C786.123 312.495 786.054 312.561 785.978 312.621L783.461 314.694L783.281 314.843L783.403 314.942L783.451 314.981H783.111L782.986 315.083H720.799V382.672L720.88 382.554L720.959 382.44V382.181L723.227 385.431C724.773 387.641 727.823 387.677 729.411 385.5L730.028 384.651C731.969 374.933 737.026 368.002 742.962 368.002C750.574 368.002 756.743 379.406 756.743 393.473C756.743 407.54 750.572 418.944 742.962 418.944C737.029 418.944 731.969 412.013 730.028 402.295L729.411 401.446C727.823 399.269 724.773 399.302 723.227 401.515L721.04 404.649V404.908L720.88 404.679L720.799 404.561V472.252H782.695L782.743 472.293L782.885 472.412L783.03 472.53L785.732 474.757C785.778 474.796 785.823 474.837 785.869 474.878C787.719 476.601 787.689 479.762 785.745 481.432L784.963 482.102C776.016 484.21 769.634 489.703 769.634 496.15C769.634 499.173 771.04 501.984 773.453 504.335C773.529 504.41 773.61 504.484 773.689 504.561C773.988 504.845 774.306 505.123 774.635 505.391C778.929 508.877 785.598 511.118 793.086 511.118C795.514 511.118 797.857 510.881 800.059 510.445C800.544 510.349 801.021 510.241 801.493 510.123C810.189 507.932 816.345 502.522 816.345 496.191C816.345 489.86 809.963 484.252 801.016 482.143L800.234 481.474C798.23 479.748 798.26 476.436 800.298 474.757L803 472.53L803.145 472.412L803.287 472.293H803.429L803.48 472.252H865.86V314.689H865.746L865.759 314.697Z" stroke="white" stroke-opacity="0.25" stroke-miterlimit="10"/>
<path d="M611.03 393.33C611.03 407.399 604.858 418.801 597.248 418.801C591.316 418.801 586.256 411.87 584.314 402.152L583.698 401.303C582.109 399.128 579.059 399.159 577.514 401.372L575.438 404.343L575.387 404.42L575.276 404.263L575.245 404.219L575.085 403.99V471.984H512.895L512.865 472.012H512.672L509.68 474.476C507.645 476.154 507.612 479.467 509.617 481.192L510.398 481.862C519.346 483.971 525.728 489.463 525.728 495.91C525.728 503.142 517.689 509.18 507 510.575C506.858 510.594 506.714 510.611 506.569 510.627C505.25 510.776 503.884 510.853 502.496 510.853C489.545 510.853 479.044 504.15 479.044 495.885C479.044 489.441 485.426 483.946 494.374 481.837L495.155 481.168C497.16 479.442 497.127 476.13 495.092 474.451L492.1 471.987H430.204V404.359L430.141 404.271L428.032 401.25C426.487 399.04 423.437 399.004 421.848 401.182L421.231 402.03C419.29 411.748 414.233 418.68 408.298 418.68C400.685 418.68 394.516 407.275 394.516 393.208C394.516 379.141 400.687 367.737 408.298 367.737C414.23 367.737 419.29 374.668 421.231 384.386L421.848 385.235C423.437 387.412 426.487 387.377 428.032 385.166L430.141 382.146L430.204 382.057V314.978H492.425L492.742 314.719H492.856L492.798 314.672L493.092 314.429L495.417 312.514C496.109 311.941 496.571 311.18 496.797 310.356C497.363 308.705 496.952 306.737 495.559 305.538L494.777 304.869C485.83 302.76 479.448 297.267 479.448 290.821C479.448 289.856 479.59 288.914 479.866 288.002C482.092 281.213 491.524 276.115 502.821 276.115C515.773 276.115 526.273 282.817 526.273 291.083C526.273 292.028 526.136 292.954 525.872 293.85C524.233 298.946 518.531 303.099 511.025 304.869L510.243 305.538C509.584 306.109 509.142 306.847 508.926 307.644C508.35 309.325 508.789 311.329 510.228 312.514L512.553 314.429L512.903 314.719L512.928 314.738L513.22 314.981H575.085V382.424L575.245 382.195L575.276 382.151L575.296 382.123L575.438 382.327L577.514 385.298C579.059 387.509 582.109 387.545 583.698 385.367L584.314 384.518C586.256 374.801 591.313 367.869 597.248 367.869C604.861 367.869 611.03 379.274 611.03 393.341V393.33Z" stroke="white" stroke-opacity="0.25" stroke-miterlimit="10"/>
<path d="M394.476 393.492C394.476 407.559 400.647 418.964 408.257 418.964C414.19 418.964 419.25 412.032 421.191 402.314L421.808 401.466C423.396 399.288 426.446 399.321 427.992 401.534L430.101 404.555V472.274H367.72L367.69 472.302H367.56L364.568 474.765C362.533 476.444 362.5 479.757 364.505 481.482L365.286 482.152C374.234 484.26 380.616 489.753 380.616 496.199C380.616 496.318 380.616 496.439 380.608 496.558C380.593 496.971 380.552 497.379 380.484 497.784C380.474 497.847 380.461 497.911 380.451 497.974C380.443 498.024 380.433 498.076 380.423 498.126C380.403 498.23 380.38 498.335 380.354 498.44C380.309 498.636 380.258 498.826 380.2 499.019C380.177 499.093 380.154 499.168 380.129 499.242C380.111 499.3 380.093 499.36 380.07 499.418C380.042 499.504 380.009 499.589 379.979 499.675C379.913 499.857 379.839 500.036 379.761 500.215C379.761 500.215 379.761 500.223 379.756 500.226C379.725 500.298 379.692 500.366 379.662 500.433C379.56 500.653 379.451 500.874 379.332 501.089C379.284 501.179 379.233 501.27 379.18 501.359C379.124 501.461 379.065 501.557 379.002 501.659C378.956 501.733 378.911 501.808 378.862 501.882C378.789 501.998 378.713 502.114 378.631 502.227C378.571 502.315 378.507 502.406 378.444 502.491C378.175 502.863 377.883 503.227 377.563 503.58C377.492 503.663 377.421 503.74 377.347 503.82C377.269 503.905 377.188 503.991 377.106 504.073C376.685 504.509 376.228 504.93 375.741 505.33C375.66 505.402 375.574 505.471 375.49 505.534C375.394 505.614 375.295 505.688 375.196 505.766C375.097 505.843 374.995 505.917 374.894 505.994C374.792 506.069 374.691 506.14 374.587 506.215C374.483 506.289 374.376 506.361 374.269 506.435C374.173 506.501 374.079 506.565 373.983 506.628C373.861 506.708 373.742 506.785 373.617 506.862C373.561 506.898 373.506 506.934 373.45 506.967C373.394 507 373.338 507.036 373.282 507.069C373.168 507.138 373.054 507.207 372.94 507.27C372.831 507.336 372.719 507.4 372.607 507.46C372.445 507.551 372.283 507.64 372.12 507.725C371.955 507.813 371.788 507.899 371.623 507.981C371.519 508.034 371.417 508.083 371.311 508.133C371.222 508.177 371.13 508.218 371.039 508.263C370.981 508.29 370.92 508.318 370.861 508.348C370.681 508.431 370.504 508.511 370.321 508.59C369.687 508.863 369.032 509.12 368.357 509.354C368.184 509.412 368.014 509.47 367.839 509.528C367.664 509.585 367.492 509.641 367.314 509.696C367.179 509.737 367.04 509.778 366.903 509.82C366.621 509.902 366.337 509.98 366.05 510.057C365.883 510.098 365.718 510.139 365.548 510.183C365.408 510.217 365.266 510.252 365.124 510.283C365.033 510.307 364.941 510.327 364.845 510.346C364.459 510.432 364.066 510.511 363.673 510.586C363.632 510.597 363.591 510.605 363.546 510.611C363.393 510.638 363.241 510.666 363.086 510.691C362.932 510.715 362.774 510.737 362.617 510.762C360.914 511.013 359.141 511.145 357.319 511.145C344.367 511.145 333.867 504.443 333.867 496.177C333.867 489.734 340.249 484.238 349.196 482.13L349.977 481.46C351.982 479.735 351.949 476.422 349.914 474.743L346.922 472.28H285.026V404.257L284.912 404.095L283.047 401.424C281.502 399.214 278.452 399.178 276.863 401.355L276.247 402.204C274.305 411.922 269.248 418.853 263.313 418.853C255.7 418.853 249.531 407.449 249.531 393.382C249.531 379.315 255.703 367.911 263.313 367.911C269.245 367.911 274.305 374.842 276.247 384.56L276.863 385.409C278.452 387.586 281.502 387.553 283.047 385.34L284.912 382.669L285.026 382.507V315.154H285.042V315.212H347.344L347.59 315.011H347.326L347.503 314.868L347.326 314.724H347.676L350.315 312.55C351.409 311.649 351.924 310.279 351.858 308.934C351.858 308.92 351.858 308.906 351.858 308.898C351.789 307.749 351.3 306.624 350.381 305.833L349.599 305.164C341.096 303.16 334.912 298.1 334.318 292.07C334.288 291.755 334.27 291.436 334.27 291.116C334.27 282.851 344.77 276.148 357.722 276.148C370.674 276.148 380.578 282.473 381.149 290.419C381.169 290.65 381.174 290.885 381.174 291.116C381.174 297.56 374.792 303.055 365.845 305.164L365.063 305.833C363.937 306.806 363.452 308.278 363.607 309.681C363.728 310.769 364.236 311.82 365.124 312.55L367.763 314.724H368.113L367.936 314.868L368.113 315.011H367.882L368.129 315.212H430.073V315.27H430.09V382.438L427.982 385.458C426.436 387.669 423.386 387.705 421.798 385.527L421.181 384.678C419.24 374.961 414.182 368.029 408.247 368.029C400.635 368.029 394.466 379.434 394.466 393.501L394.476 393.492Z" stroke="white" stroke-opacity="0.25" stroke-miterlimit="10"/>
<path d="M104.576 393.52C104.576 407.587 110.748 418.991 118.358 418.991C124.291 418.991 129.35 412.06 131.292 402.342L131.908 401.493C133.497 399.316 136.547 399.349 138.092 401.562L140.198 404.58V472.301H77.5769L74.5851 474.765C72.55 476.444 72.517 479.756 74.5217 481.482L75.3033 482.151C84.2506 484.26 90.6326 489.753 90.6326 496.199C90.6326 504.44 80.1982 511.126 67.2998 511.167C54.404 511.126 43.9671 504.44 43.9671 496.199C43.9671 489.755 50.349 484.26 59.2964 482.151L60.078 481.482C62.0826 479.756 62.0497 476.444 60.0145 474.765L57.0228 472.301H-4.87305V315.027H57.779L60.418 317.202C62.4531 318.88 62.4861 322.193 60.4815 323.918L59.6999 324.588C50.7525 326.696 44.3706 332.189 44.3706 338.636C44.3706 346.904 54.8709 353.604 67.8226 353.604C80.7742 353.604 91.2746 346.901 91.2746 338.636C91.2746 332.192 84.8926 326.696 75.9453 324.588L75.1637 323.918C73.159 322.193 73.192 318.88 75.2271 317.202L77.8662 315.027H140.163V315.146H140.193V382.46L138.087 385.478C136.542 387.688 133.492 387.724 131.903 385.546L131.287 384.698C129.345 374.98 124.288 368.048 118.353 368.048C110.74 368.048 104.571 379.453 104.571 393.52H104.576Z" stroke="white" stroke-opacity="0.25" stroke-miterlimit="10"/>
<path d="M175.821 551.081C175.821 565.147 169.649 576.552 162.039 576.552C156.106 576.552 151.046 569.62 149.105 559.903L148.489 559.054C146.9 556.876 143.85 556.91 142.305 559.123L140.198 562.141V629.862H-4.87305V472.299H57.104L60.0957 474.763C62.1309 476.441 62.1638 479.754 60.1592 481.479L59.3776 482.149C50.4302 484.257 44.0483 489.75 44.0483 496.197C44.0483 504.465 54.5487 511.165 67.5003 511.165H67.6221C80.5179 511.123 90.9548 504.437 90.9548 496.197C90.9548 489.753 84.5729 484.257 75.6255 482.149L74.844 481.479C72.8393 479.754 72.8723 476.441 74.9074 474.763L77.8992 472.299H140.201V540.02L142.307 543.038C143.853 545.249 146.903 545.285 148.491 543.107L149.108 542.258C151.049 532.541 156.106 525.609 162.042 525.609C169.652 525.609 175.823 537.014 175.823 551.081H175.821Z" stroke="white" stroke-opacity="0.25" stroke-miterlimit="10"/>
<path d="M320.826 551.081C320.826 565.147 314.655 576.552 307.044 576.552C301.112 576.552 296.052 569.62 294.111 559.903L293.494 559.054C291.906 556.876 288.855 556.91 287.31 559.123L285.204 562.141V629.862H140.132V562.141L142.238 559.123C143.784 556.912 146.834 556.876 148.422 559.054L149.039 559.903C150.98 569.62 156.038 576.552 161.973 576.552C169.583 576.552 175.754 565.147 175.754 551.081C175.754 537.014 169.583 525.609 161.973 525.609C156.04 525.609 150.98 532.541 149.039 542.258L148.422 543.107C146.834 545.285 143.784 545.251 142.238 543.038L140.132 540.02V472.299H202.109L205.101 474.763C207.136 476.441 207.169 479.754 205.165 481.479L204.383 482.149C195.436 484.257 189.054 489.75 189.054 496.197C189.054 504.465 199.554 511.165 212.506 511.165C225.457 511.165 235.958 504.462 235.958 496.197C235.958 489.753 229.576 484.257 220.628 482.149L219.847 481.479C217.842 479.754 217.873 476.441 219.91 474.763L222.902 472.299H285.204V540.02L287.31 543.038C288.855 545.249 291.906 545.285 293.494 543.107L294.111 542.258C296.052 532.541 301.109 525.609 307.044 525.609C314.655 525.609 320.826 537.014 320.826 551.081Z" stroke="white" stroke-opacity="0.25" stroke-miterlimit="10"/>
<path d="M465.831 551.08C465.831 565.147 459.66 576.552 452.05 576.552C446.117 576.552 441.057 569.62 439.116 559.902L438.499 559.054C436.911 556.876 433.861 556.909 432.315 559.122L430.209 562.14V629.862H285.138V562.14L287.244 559.122C288.789 556.912 291.839 556.876 293.428 559.054L294.044 559.902C295.986 569.62 301.043 576.552 306.978 576.552C314.588 576.552 320.76 565.147 320.76 551.08C320.76 537.013 314.588 525.609 306.978 525.609C301.046 525.609 295.986 532.54 294.044 542.258L293.428 543.107C291.839 545.284 288.789 545.251 287.244 543.038L285.138 540.02V472.299H347.115L350.106 474.763C352.142 476.441 352.175 479.754 350.17 481.479L349.388 482.149C340.441 484.257 334.059 489.75 334.059 496.196C334.059 504.465 344.559 511.164 357.511 511.164C359.389 511.164 361.218 511.024 362.969 510.754C363.127 510.729 363.284 510.707 363.439 510.682C373.52 509.004 380.963 503.153 380.963 496.194C380.963 489.75 374.581 484.254 365.634 482.146L364.852 481.476C362.848 479.751 362.878 476.438 364.916 474.76L367.907 472.296H430.209V540.018L432.315 543.035C433.861 545.246 436.911 545.282 438.499 543.104L439.116 542.255C441.057 532.538 446.115 525.606 452.05 525.606C459.66 525.606 465.831 537.011 465.831 551.078V551.08Z" stroke="white" stroke-opacity="0.25" stroke-miterlimit="10"/>
<path d="M539.268 551.081C539.268 565.147 545.44 576.552 553.05 576.552C558.982 576.552 564.042 569.62 565.983 559.903L566.6 559.054C568.189 556.876 571.239 556.91 572.784 559.123L575.053 562.372L575.215 562.141V629.862H430.144V562.141L432.25 559.123C433.795 556.912 436.845 556.876 438.434 559.054L439.05 559.903C440.992 569.62 446.049 576.552 451.984 576.552C459.594 576.552 465.766 565.147 465.766 551.081C465.766 537.014 459.594 525.609 451.984 525.609C446.051 525.609 440.992 532.541 439.05 542.258L438.434 543.107C436.845 545.285 433.795 545.251 432.25 543.038L430.144 540.02V472.299H492.121L495.112 474.763C497.147 476.441 497.18 479.754 495.176 481.479L494.394 482.149C485.447 484.257 479.065 489.75 479.065 496.197C479.065 504.465 489.565 511.165 502.517 511.165C503.984 511.165 505.42 511.079 506.813 510.914C506.955 510.897 507.1 510.881 507.244 510.861C517.93 509.467 525.971 503.428 525.971 496.197C525.971 489.753 519.59 484.257 510.642 482.149L509.861 481.479C507.856 479.754 507.886 476.441 509.924 474.763L512.916 472.299H575.218V540.02L575.055 539.789L572.787 543.038C571.241 545.249 568.191 545.285 566.603 543.107L565.986 542.258C564.045 532.541 558.987 525.609 553.052 525.609C545.442 525.609 539.271 537.014 539.271 551.081H539.268Z" stroke="white" stroke-opacity="0.25" stroke-miterlimit="10"/>
<path d="M720.543 472.299V540.02L720.38 539.789L718.112 543.038C716.566 545.249 713.516 545.284 711.928 543.107L711.311 542.258C709.37 532.54 704.313 525.609 698.377 525.609C690.767 525.609 684.596 537.013 684.596 551.08C684.596 565.147 690.767 576.552 698.377 576.552C704.31 576.552 709.37 569.62 711.311 559.902L711.928 559.054C713.516 556.876 716.566 556.909 718.112 559.122L720.38 562.372L720.543 562.14V629.862H575.471V562.14L575.309 562.372L573.04 559.122C571.495 556.912 568.445 556.876 566.856 559.054L566.24 559.902C564.298 569.62 559.241 576.552 553.306 576.552C545.693 576.552 539.524 565.147 539.524 551.08C539.524 537.013 545.696 525.609 553.306 525.609C559.239 525.609 564.298 532.54 566.24 542.258L566.856 543.107C568.445 545.284 571.495 545.251 573.04 543.038L575.309 539.789L575.471 540.02V472.299H637.448L637.573 472.401L640.44 474.763C641.092 475.3 641.541 476.008 641.78 476.777C642.287 478.406 641.864 480.31 640.503 481.479L639.722 482.149C630.775 484.257 624.393 489.75 624.393 496.196C624.393 497.257 624.568 498.294 624.895 499.291C624.926 499.385 624.958 499.482 624.991 499.575C627.395 506.215 636.712 511.164 647.845 511.164C660.796 511.164 671.297 504.462 671.297 496.196C671.297 495.19 671.142 494.209 670.847 493.261C670.825 493.198 670.807 493.137 670.784 493.074C669.107 488.019 663.43 483.91 655.967 482.149L655.186 481.479C654.627 480.999 654.229 480.396 653.983 479.74C653.968 479.696 653.952 479.652 653.937 479.605C653.376 477.929 653.815 475.939 655.247 474.76L658.114 472.398L658.238 472.296H720.54L720.543 472.299Z" stroke="white" stroke-opacity="0.25" stroke-miterlimit="10"/>
<path d="M865.873 472.299V629.862H720.802V562.141L720.639 562.372L718.371 559.123C716.825 556.912 713.775 556.876 712.187 559.054L711.57 559.903C709.629 569.62 704.572 576.552 698.636 576.552C691.026 576.552 684.855 565.147 684.855 551.081C684.855 537.014 691.026 525.609 698.636 525.609C704.569 525.609 709.629 532.541 711.57 542.258L712.187 543.107C713.775 545.285 716.825 545.251 718.371 543.038L720.639 539.789L720.802 540.02V472.299H782.779L782.921 472.417L783.066 472.536L785.768 474.763C785.814 474.801 785.859 474.843 785.905 474.884C787.803 476.593 787.788 479.795 785.829 481.482L785.047 482.152C776.1 484.26 769.718 489.753 769.718 496.199C769.718 499.201 771.104 501.998 773.486 504.343C773.563 504.418 773.644 504.492 773.722 504.569C774.022 504.853 774.339 505.132 774.669 505.399C778.96 508.913 785.651 511.167 793.168 511.167C795.667 511.167 798.075 510.917 800.334 510.454C800.821 510.357 801.295 510.25 801.767 510.131C810.463 507.94 816.62 502.53 816.62 496.199C816.62 493.057 815.105 490.141 812.514 487.738C812.433 487.658 812.346 487.584 812.263 487.507C812.184 487.438 812.108 487.369 812.029 487.303C811.95 487.234 811.872 487.165 811.791 487.099C811.709 487.03 811.623 486.961 811.537 486.892C808.893 484.767 805.355 483.111 801.293 482.154L801.245 482.113L800.511 481.485C800.511 481.485 800.506 481.479 800.504 481.476C800.44 481.424 800.382 481.369 800.323 481.314C798.509 479.55 798.603 476.389 800.572 474.768L803.275 472.541L803.419 472.423L803.561 472.304H865.863L865.873 472.299Z" stroke="white" stroke-opacity="0.25" stroke-miterlimit="10"/>
<path d="M104.576 236.246C104.576 250.313 110.748 261.717 118.358 261.717C124.291 261.717 129.35 254.786 131.292 245.068L131.908 244.219C133.497 242.042 136.547 242.075 138.092 244.288L140.168 247.262V314.738H77.8713L78.0464 314.882L77.8713 315.025L75.2322 317.199C73.1971 318.878 73.1641 322.191 75.1688 323.916L75.9503 324.586C84.8977 326.694 91.2797 332.187 91.2797 338.633C91.2797 346.901 80.7793 353.601 67.8277 353.601C54.876 353.601 44.3757 346.899 44.3757 338.633C44.3757 332.19 50.7576 326.694 59.705 324.586L60.4865 323.916C62.4912 322.191 62.4608 318.878 60.4231 317.199L57.784 315.025L57.609 314.882L57.784 314.738H-4.87305V157.701H57.7155L57.5709 157.583L57.7155 157.464L60.418 155.237C62.4531 153.559 62.4861 150.246 60.4815 148.521L59.6999 147.851C50.7525 145.743 44.3706 140.25 44.3706 133.804C44.3706 125.535 54.8709 118.835 67.8226 118.835C80.7742 118.835 91.2746 125.538 91.2746 133.804C91.2746 140.247 84.8927 145.743 75.9453 147.851L75.1637 148.521C73.159 150.246 73.192 153.559 75.2271 155.237L77.9296 157.464L78.0743 157.583L77.9296 157.701H140.163V225.23L138.087 228.204C136.542 230.414 133.492 230.45 131.903 228.273L131.287 227.424C129.345 217.706 124.288 210.775 118.353 210.775C110.74 210.775 104.571 222.179 104.571 236.246H104.576Z" stroke="white" stroke-opacity="0.25" stroke-miterlimit="10"/>
<path d="M321.098 236.494C321.098 250.561 314.926 261.965 307.316 261.965C301.383 261.965 296.323 255.034 294.382 245.316L293.766 244.467C292.177 242.29 289.127 242.323 287.582 244.536L285.313 247.785V247.684L285.184 247.499L285.151 247.449V315.218H223.207L222.915 314.975L222.94 314.953H223.288L223.113 314.81L223.288 314.667H222.537L222.887 314.956L222.912 314.978L220.296 317.13C218.261 318.809 218.228 322.122 220.233 323.847L221.014 324.517C229.962 326.625 236.343 332.118 236.343 338.564C236.343 346.83 225.843 353.532 212.891 353.532C199.94 353.532 189.439 346.83 189.439 338.564C189.439 332.121 195.821 326.625 204.769 324.517L205.55 323.847C207.555 322.122 207.522 318.809 205.487 317.13L202.848 314.956L202.79 314.909L203.084 314.667H202.495L202.67 314.81L202.495 314.953H202.729L202.411 315.215H140.112V315.097H140.143V247.375L140.112 247.331L138.036 244.357C136.491 242.147 133.441 242.111 131.852 244.288L131.236 245.137C129.295 254.855 124.237 261.786 118.302 261.786C110.692 261.786 104.521 250.382 104.521 236.315C104.521 222.248 110.692 210.843 118.302 210.843C124.235 210.843 129.295 217.775 131.236 227.493L131.852 228.342C133.441 230.519 136.491 230.486 138.036 228.273L140.112 225.299L140.143 225.255V157.77H202.551L202.498 157.726L202.584 157.652L205.431 155.306C207.466 153.628 207.499 150.315 205.495 148.59L204.713 147.92C195.766 145.812 189.384 140.319 189.384 133.872C189.384 125.607 199.884 118.904 212.836 118.904C225.787 118.904 236.288 125.607 236.288 133.872C236.288 140.316 229.906 145.812 220.958 147.92L220.177 148.59C218.172 150.315 218.205 153.628 220.24 155.306L223.087 157.652L223.141 157.696L223.054 157.77H285.143V225.42L285.176 225.371L285.336 225.142V225.244L287.571 228.446C289.117 230.657 292.167 230.692 293.755 228.515L294.372 227.666C296.313 217.948 301.371 211.017 307.306 211.017C314.916 211.017 321.087 222.422 321.087 236.488L321.098 236.494Z" fill="#FFFFF0" stroke="white" stroke-opacity="0.25" stroke-miterlimit="10"/>
<path d="M223.513 314.953L223.338 314.81L223.513 314.667H222.76L223.112 314.953L223.138 314.975L223.166 314.953H223.513Z" stroke="white" stroke-opacity="0.25" stroke-miterlimit="10"/>
<path d="M263.518 367.902C269.451 367.902 274.511 374.834 276.452 384.552L277.068 385.401C278.657 387.578 281.707 387.545 283.252 385.332L285.117 382.661V315.218H223.432L223.14 314.975L220.524 317.128C218.489 318.806 218.456 322.119 220.461 323.844L221.242 324.514C230.19 326.622 236.572 332.115 236.572 338.562C236.572 346.83 226.071 353.53 213.12 353.53C200.168 353.53 189.668 346.827 189.668 338.562C189.668 332.118 196.05 326.622 204.997 324.514L205.779 323.844C207.783 322.119 207.75 318.806 205.715 317.128L203.076 314.953L203.018 314.906L203.312 314.664H202.723L202.898 314.807L202.723 314.95H202.957L202.64 315.212H140.34V315.094H140.371V314.589H140.046V382.733L138.133 385.472C136.587 387.683 133.537 387.718 131.949 385.541L131.332 384.692C129.391 374.974 124.333 368.043 118.398 368.043C110.788 368.043 104.617 379.447 104.617 393.514C104.617 407.581 110.788 418.986 118.398 418.986C124.331 418.986 129.391 412.054 131.332 402.336L131.949 401.488C133.537 399.31 136.587 399.343 138.133 401.557L140.046 404.296V472.15H201.942L204.934 474.614C206.377 475.805 206.814 477.816 206.228 479.503C206.218 479.533 206.207 479.564 206.2 479.591C205.956 480.247 205.558 480.848 204.997 481.33L204.215 482C196.758 483.756 191.081 487.871 189.399 492.922C189.376 492.983 189.358 493.046 189.338 493.107C189.041 494.058 188.886 495.042 188.886 496.048C188.886 504.313 199.386 511.016 212.338 511.016C223.47 511.016 232.788 506.066 235.191 499.427C235.219 499.347 235.247 499.27 235.27 499.19C235.61 498.175 235.79 497.125 235.79 496.045C235.79 489.601 229.408 484.106 220.461 481.997L219.679 481.328C218.322 480.156 217.898 478.255 218.4 476.629C218.639 475.857 219.088 475.149 219.743 474.608L222.734 472.144H285.115V404.078L283.25 401.408C281.704 399.197 278.654 399.162 277.066 401.339L276.449 402.188C274.508 411.906 269.451 418.837 263.515 418.837C255.903 418.837 249.734 407.432 249.734 393.366C249.734 379.299 255.905 367.894 263.515 367.894L263.518 367.902Z" stroke="white" stroke-opacity="0.25" stroke-miterlimit="10"/>
<path d="M394.905 236.422C394.905 250.489 401.076 261.894 408.686 261.894C414.619 261.894 419.679 254.962 421.62 245.244L422.237 244.395C423.825 242.218 426.875 242.251 428.421 244.464L430.496 247.435V315.204H368.552L368.306 315.003L368.245 314.953L367.956 314.713L365.563 312.74C364.617 311.96 364.101 310.827 364.028 309.667C363.939 308.325 364.426 306.947 365.5 306.021L366.281 305.351C375.229 303.243 381.611 297.75 381.611 291.303C381.611 291 381.595 290.7 381.567 290.402C380.839 282.556 370.636 276.335 358.159 276.335C345.681 276.335 334.706 283.038 334.706 291.303C334.706 291.554 334.717 291.805 334.737 292.056C335.209 298.171 341.436 303.325 350.036 305.351L350.817 306.021C351.683 306.768 352.17 307.807 352.279 308.884C352.279 308.895 352.279 308.909 352.279 308.92C352.411 310.328 351.898 311.792 350.754 312.737L348.361 314.711L348.054 314.961L348.011 314.997L347.765 315.198H285.463V315.14H285.496V247.422L285.625 247.606V247.708L287.894 244.459C289.439 242.248 292.489 242.213 294.078 244.39L294.694 245.239C296.636 254.957 301.693 261.888 307.628 261.888C315.238 261.888 321.41 250.484 321.41 236.417C321.41 222.35 315.238 210.945 307.628 210.945C301.696 210.945 296.636 217.877 294.694 227.595L294.078 228.443C292.489 230.621 289.439 230.588 287.894 228.375L285.658 225.172V225.07L285.498 225.299V157.698H347.836L347.904 157.638L350.822 155.234C352.858 153.556 352.891 150.243 350.886 148.518L350.104 147.848C341.157 145.74 334.775 140.247 334.775 133.801C334.775 125.532 345.275 118.833 358.227 118.833C371.179 118.833 381.679 125.535 381.679 133.801C381.679 140.244 375.297 145.74 366.35 147.848L365.568 148.518C363.563 150.243 363.594 153.556 365.632 155.234L368.55 157.638L368.481 157.698H430.499V225.406L428.423 228.377C426.878 230.588 423.828 230.623 422.239 228.446L421.623 227.597C419.681 217.879 414.624 210.948 408.689 210.948C401.076 210.948 394.907 222.353 394.907 236.419L394.905 236.422Z" stroke="white" stroke-opacity="0.25" stroke-miterlimit="10"/>
<path d="M611.426 236.538C611.426 250.605 605.255 262.009 597.645 262.009C591.712 262.009 586.652 255.078 584.711 245.36L584.094 244.511C582.506 242.334 579.455 242.367 577.91 244.58L575.641 247.829V247.722L575.515 247.537L575.484 247.49V315.259H513.54L513.248 315.016L513.223 314.997L512.873 314.708L510.548 312.792C509.11 311.604 508.673 309.601 509.247 307.922C509.483 307.225 509.896 306.583 510.485 306.076L511.266 305.406C518.902 303.606 524.667 299.343 526.195 294.128C526.459 293.233 526.596 292.307 526.596 291.361C526.596 283.096 516.095 276.393 503.144 276.393C491.844 276.393 482.412 281.492 480.189 288.28C479.862 289.275 479.692 290.306 479.692 291.361C479.692 297.805 486.071 303.3 495.021 305.409L495.803 306.078C497.122 307.217 497.561 309.044 497.12 310.637C496.894 311.461 496.432 312.222 495.739 312.795L493.415 314.71L493.12 314.953L493.065 315L492.747 315.259H430.446V315.201H430.476V247.479L430.446 247.432L428.37 244.461C426.825 242.251 423.774 242.215 422.186 244.393L421.569 245.241C419.628 254.959 414.571 261.891 408.635 261.891C401.023 261.891 394.854 250.486 394.854 236.419C394.854 222.352 401.025 210.948 408.635 210.948C414.568 210.948 419.628 217.879 421.569 227.597L422.186 228.446C423.774 230.623 426.825 230.59 428.37 228.377L430.446 225.406L430.476 225.359V157.698H492.747L495.737 160.159C497.772 161.838 497.805 165.151 495.8 166.876L495.019 167.546C486.071 169.654 479.689 175.147 479.689 181.593C479.689 189.859 490.19 196.561 503.141 196.561C516.093 196.561 526.593 189.859 526.593 181.593C526.593 175.15 520.211 169.654 511.264 167.546L510.482 166.876C508.478 165.151 508.508 161.838 510.546 160.159L513.535 157.698H575.515V157.756H575.484V225.464L575.515 225.417L575.677 225.186V225.293L577.91 228.493C579.455 230.703 582.506 230.739 584.094 228.562L584.711 227.713C586.652 217.995 591.709 211.064 597.645 211.064C605.257 211.064 611.426 222.468 611.426 236.535V236.538Z" stroke="white" stroke-opacity="0.25" stroke-miterlimit="10"/>
<path d="M720.852 315.085V315.32H658.873L658.54 315.047L655.8 317.301C653.765 318.98 653.732 322.292 655.736 324.018L656.518 324.687C665.465 326.796 671.847 332.289 671.847 338.735C671.847 347.003 661.347 353.703 648.395 353.703C635.444 353.703 624.943 347.003 624.943 338.735C624.943 332.291 631.325 326.796 640.272 324.687L641.054 324.018C643.059 322.292 643.028 318.98 640.991 317.301L638.331 315.11L638.08 315.317H575.781V315.256H575.811V247.535L575.938 247.719V247.827L578.207 244.577C579.752 242.367 582.802 242.331 584.391 244.508L585.007 245.357C586.949 255.075 592.006 262.007 597.941 262.007C605.551 262.007 611.723 250.602 611.723 236.535C611.723 222.468 605.551 211.064 597.941 211.064C592.008 211.064 586.949 217.995 585.007 227.713L584.391 228.562C582.802 230.739 579.752 230.706 578.207 228.493L575.974 225.293V225.186L575.811 225.417V157.698H638.209L641.201 155.234C643.236 153.556 643.269 150.243 641.265 148.518L640.483 147.848C631.536 145.74 625.154 140.247 625.154 133.801C625.154 125.532 635.654 118.833 648.606 118.833C661.557 118.833 672.058 125.535 672.058 133.801C672.058 140.244 665.676 145.74 656.728 147.848L655.947 148.518C653.942 150.243 653.973 153.556 656.01 155.234L659.002 157.698H720.817V225.525L718.741 228.496C717.196 230.706 714.146 230.742 712.557 228.565L711.94 227.716C709.999 217.998 704.942 211.066 699.007 211.066C691.394 211.066 685.225 222.471 685.225 236.538C685.225 250.605 691.396 262.009 699.007 262.009C704.939 262.009 709.999 255.078 711.94 245.36L712.557 244.511C714.146 242.334 717.196 242.367 718.741 244.58L720.817 247.551V315.085H720.85H720.852Z" stroke="white" stroke-opacity="0.25" stroke-miterlimit="10"/>
<path d="M865.873 157.701V315.088H803.896L803.772 314.986L803.713 314.939L803.421 314.697L800.904 312.624C798.869 310.946 798.836 307.633 800.841 305.908L800.879 305.875L801.622 305.238C806.015 304.202 809.796 302.35 812.498 299.969C812.633 299.853 812.765 299.731 812.894 299.61C815.454 297.21 816.952 294.313 816.952 291.19C816.952 282.925 806.451 276.222 793.5 276.222C785.811 276.222 778.987 278.584 774.712 282.231C774.636 282.294 774.562 282.36 774.488 282.426C771.695 284.89 770.048 287.916 770.048 291.193C770.048 297.637 776.43 303.132 785.377 305.241L786.159 305.911C788.09 307.572 788.133 310.712 786.311 312.437C786.24 312.503 786.171 312.569 786.095 312.63L783.578 314.702L783.4 314.851L783.228 314.992L783.103 315.094H720.837V247.609L720.804 247.559L718.728 244.588C717.183 242.378 714.133 242.342 712.544 244.52L711.928 245.368C709.986 255.086 704.929 262.018 698.994 262.018C691.384 262.018 685.212 250.613 685.212 236.546C685.212 222.479 691.384 211.075 698.994 211.075C704.927 211.075 709.986 218.006 711.928 227.724L712.544 228.573C714.133 230.75 717.183 230.717 718.728 228.504L720.804 225.533L720.837 225.483V157.765H720.804V157.707H783.317L786.095 159.994C788.13 161.673 788.163 164.985 786.159 166.711L785.377 167.38C776.43 169.489 770.048 174.982 770.048 181.428C770.048 189.696 780.548 196.396 793.5 196.396C806.451 196.396 816.952 189.693 816.952 181.428C816.952 174.984 810.57 169.489 801.622 167.38L800.841 166.711C798.836 164.985 798.867 161.673 800.904 159.994L803.683 157.707H865.873V157.701Z" stroke="white" stroke-opacity="0.25" stroke-miterlimit="10"/>
</g>
<defs>
<clipPath id="clip0_166_270">
<rect width="871" height="630" fill="white" transform="translate(-5)"/>
</clipPath>
</defs>
</svg>
