<svg width="937" height="594" viewBox="0 0 937 594" fill="none" xmlns="http://www.w3.org/2000/svg">
<g clip-path="url(#clip0_166_348)">
<path d="M819.64 370.947C819.64 384.21 813.001 394.963 804.814 394.963C798.431 394.963 792.988 388.428 790.9 379.265L790.237 378.465C788.528 376.412 785.246 376.446 783.584 378.53L781.231 381.484V381.729L781.059 381.513L780.972 381.401V445.225H781.059V445.264H713.916L713.782 445.36L710.697 447.587C709.158 448.699 708.686 450.575 709.289 452.155C709.305 452.197 709.322 452.238 709.338 452.282C709.592 452.937 710.034 453.543 710.668 454.018L711.508 454.65C719.479 456.297 725.556 460.133 727.412 464.854C727.437 464.914 727.456 464.971 727.481 465.031C727.797 465.925 727.964 466.85 727.964 467.798C727.964 475.591 716.668 481.911 702.735 481.911C690.759 481.911 680.735 477.244 678.15 470.984C678.114 470.896 678.079 470.805 678.046 470.716C677.716 469.804 677.541 468.858 677.541 467.894C677.541 461.819 684.407 456.637 694.032 454.65L694.873 454.018C696.369 452.89 696.811 451.043 696.21 449.486C695.954 448.761 695.471 448.096 694.769 447.587L691.684 445.36L691.551 445.264H625V445.238H625.205V381.685L625.325 381.536L625.379 381.607V381.466L627.612 378.665C629.275 376.581 632.556 376.55 634.265 378.6L634.928 379.4C637.017 388.563 642.457 395.098 648.842 395.098C657.032 395.098 663.668 384.348 663.668 371.082C663.668 357.817 657.029 347.066 648.842 347.066C642.46 347.066 637.017 353.602 634.928 362.764L634.265 363.565C632.556 365.618 629.275 365.584 627.612 363.5L625.379 360.699V360.314L625.227 360.504L625.205 360.478V297.255H692.105L692.375 297.06L695.236 299.126C697.425 300.708 697.461 303.832 695.304 305.458L694.463 306.09C684.838 308.078 677.972 313.257 677.972 319.335C677.972 327.13 689.268 333.447 703.201 333.447C717.134 333.447 728.431 327.13 728.431 319.335C728.431 313.259 721.565 308.078 711.94 306.09L711.099 305.458C708.942 303.832 708.975 300.708 711.167 299.126L714.115 297L714.473 297.257H780.974V360.764L781.062 360.652L781.146 360.545V360.301L783.587 363.365C785.249 365.449 788.53 365.482 790.239 363.43L790.903 362.629C792.991 353.467 798.431 346.931 804.817 346.931C813.003 346.931 819.642 357.684 819.642 370.947H819.64Z" fill="#FFFFF0" stroke="white" stroke-opacity="0.25" stroke-miterlimit="10"/>
<path d="M936.863 0.129883V148.69H936.689V148.523H869.961L869.988 148.544L869.789 148.69L866.8 150.846C864.61 152.429 864.575 155.552 866.731 157.179L867.572 157.811C877.198 159.798 884.063 164.977 884.063 171.055C884.063 178.851 872.767 185.168 858.834 185.168C844.901 185.168 833.605 178.849 833.605 171.055C833.605 164.98 840.47 159.798 850.096 157.811L850.937 157.179C853.093 155.552 853.06 152.429 850.868 150.846L847.879 148.69L847.852 148.669L848.051 148.523H780.802V84.8378L778.536 81.9924C776.874 79.9083 773.592 79.8745 771.884 81.9274L771.22 82.7278C769.132 91.8903 763.691 98.4257 757.306 98.4257C749.117 98.4257 742.48 87.6728 742.48 74.4098C742.48 61.1467 749.119 50.3939 757.306 50.3939C763.689 50.3939 769.132 56.9292 771.22 66.0918L771.884 66.8921C773.592 68.945 776.874 68.9112 778.536 66.8272L780.802 63.9817V0.129883H936.866H936.863Z" stroke="white" stroke-opacity="0.25" stroke-miterlimit="10"/>
<path d="M223.808 296.753L223.933 296.844L223.871 296.888H223.619L223.808 296.753Z" stroke="white" stroke-opacity="0.25" stroke-miterlimit="10"/>
<path d="M245.988 296.888H245.614L245.802 296.753L245.988 296.888Z" stroke="white" stroke-opacity="0.25" stroke-miterlimit="10"/>
<path d="M223.619 296.615H224.252L223.933 296.844L223.619 296.615Z" stroke="white" stroke-opacity="0.25" stroke-miterlimit="10"/>
<path d="M245.988 296.615L245.586 296.909L245.18 296.615H245.988Z" stroke="white" stroke-opacity="0.25" stroke-miterlimit="10"/>
<path d="M67.5034 296.753H67.8805L67.6947 296.888L67.5034 296.753Z" stroke="white" stroke-opacity="0.25" stroke-miterlimit="10"/>
<path d="M89.8745 296.753L89.6832 296.888L89.4946 296.753H89.8745Z" stroke="white" stroke-opacity="0.25" stroke-miterlimit="10"/>
<path d="M847.896 296.714L847.705 296.855L847.699 296.85L847.508 296.714H847.896Z" stroke="white" stroke-opacity="0.25" stroke-miterlimit="10"/>
<path d="M691.196 445.409H624.511V445.311H691.064L691.196 445.409Z" stroke="white" stroke-opacity="0.25" stroke-miterlimit="10"/>
<path d="M780.575 445.311V445.409H713.299L713.433 445.311H780.575Z" stroke="white" stroke-opacity="0.25" stroke-miterlimit="10"/>
<path d="M223.619 296.615H224.252L223.933 296.844L223.619 296.615Z" stroke="white" stroke-opacity="0.25" stroke-miterlimit="10"/>
<path d="M245.988 296.615L245.586 296.909L245.18 296.615H245.988Z" stroke="white" stroke-opacity="0.25" stroke-miterlimit="10"/>
<path d="M224.252 296.615L223.933 296.844L223.996 296.888H223.619L223.807 296.753L223.996 296.615H224.252Z" stroke="white" stroke-opacity="0.25" stroke-miterlimit="10"/>
<path d="M245.988 296.888H245.556L245.18 296.615H245.611L245.802 296.753L245.988 296.888Z" stroke="white" stroke-opacity="0.25" stroke-miterlimit="10"/>
<path d="M67.3123 148.578L67.4679 148.69H0.136719V148.466H67.4679L67.3123 148.578Z" stroke="white" stroke-opacity="0.25" stroke-miterlimit="10"/>
<path d="M156.545 148.466V148.69H89.563L89.7186 148.578L89.563 148.466H156.545Z" stroke="white" stroke-opacity="0.25" stroke-miterlimit="10"/>
<path d="M312.577 148.578V212.425L312.538 212.472V148.69H245.748L245.84 148.62L245.783 148.578H312.577Z" stroke="white" stroke-opacity="0.25" stroke-miterlimit="10"/>
<path d="M312.576 233.288V297.135H312.538V233.242L312.576 233.288Z" stroke="white" stroke-opacity="0.25" stroke-miterlimit="10"/>
<path d="M468.602 148.632V212.482L468.57 212.526V148.69H401.853L401.924 148.635L401.921 148.632H468.602Z" stroke="white" stroke-opacity="0.25" stroke-miterlimit="10"/>
<path d="M468.603 233.341V297.19H468.57V233.296L468.603 233.341Z" stroke="white" stroke-opacity="0.25" stroke-miterlimit="10"/>
<path d="M624.631 148.687V148.69H557.958V148.687H624.631Z" stroke="white" stroke-opacity="0.25" stroke-miterlimit="10"/>
<path d="M624.631 148.744V212.536L624.599 212.58V148.744H624.631Z" stroke="white" stroke-opacity="0.25" stroke-miterlimit="10"/>
<path d="M624.631 233.395V297.245H624.599V233.351L624.631 233.395Z" stroke="white" stroke-opacity="0.25" stroke-miterlimit="10"/>
<path d="M624.599 148.744H624.631V212.536L624.599 212.58V148.744Z" stroke="white" stroke-opacity="0.25" stroke-miterlimit="10"/>
<path d="M624.599 233.351L624.631 233.395V297.245H624.599V233.351Z" stroke="white" stroke-opacity="0.25" stroke-miterlimit="10"/>
<path d="M780.663 148.744V212.591L780.625 212.638V148.744H780.663Z" stroke="white" stroke-opacity="0.25" stroke-miterlimit="10"/>
<path d="M780.625 233.408L780.663 233.455V297.081H780.625V233.408Z" stroke="white" stroke-opacity="0.25" stroke-miterlimit="10"/>
<path d="M67.8149 148.69H67.5034L67.6564 148.578L67.8149 148.69Z" stroke="white" stroke-opacity="0.25" stroke-miterlimit="10"/>
<path d="M89.8745 148.69H89.563L89.7188 148.578L89.8745 148.69Z" stroke="white" stroke-opacity="0.25" stroke-miterlimit="10"/>
<path d="M67.8149 148.69H67.5034L67.6564 148.578L67.8149 148.69Z" stroke="white" stroke-opacity="0.25" stroke-miterlimit="10"/>
<path d="M89.8745 148.69H89.563L89.7188 148.578L89.8745 148.69Z" stroke="white" stroke-opacity="0.25" stroke-miterlimit="10"/>
<path d="M223.685 148.689H223.567L223.627 148.646L223.685 148.689Z" stroke="white" stroke-opacity="0.25" stroke-miterlimit="10"/>
<path d="M245.937 148.69H245.748L245.841 148.62L245.937 148.69Z" stroke="white" stroke-opacity="0.25" stroke-miterlimit="10"/>
<path d="M223.685 148.689H223.567L223.627 148.646L223.685 148.689Z" stroke="white" stroke-opacity="0.25" stroke-miterlimit="10"/>
<path d="M245.936 148.69H245.747L245.84 148.62L245.936 148.69Z" stroke="white" stroke-opacity="0.25" stroke-miterlimit="10"/>
<path d="M379.635 148.687L379.638 148.69H379.632L379.635 148.687Z" stroke="white" stroke-opacity="0.25" stroke-miterlimit="10"/>
<path d="M402 148.689H401.853L401.924 148.635L402 148.689Z" stroke="white" stroke-opacity="0.25" stroke-miterlimit="10"/>
<path d="M379.635 148.688L379.638 148.69H379.632L379.635 148.688Z" stroke="white" stroke-opacity="0.25" stroke-miterlimit="10"/>
<path d="M402 148.689H401.853L401.924 148.635L402 148.689Z" stroke="white" stroke-opacity="0.25" stroke-miterlimit="10"/>
<path d="M558.064 148.69H557.958V148.687H558.062L558.064 148.69Z" stroke="white" stroke-opacity="0.25" stroke-miterlimit="10"/>
<path d="M558.064 148.69H557.958V148.687H558.062L558.064 148.69Z" stroke="white" stroke-opacity="0.25" stroke-miterlimit="10"/>
<path d="M847.875 148.689H847.822L847.848 148.669L847.875 148.689Z" stroke="white" stroke-opacity="0.25" stroke-miterlimit="10"/>
<path d="M870.191 148.69H869.786L869.988 148.542L870.191 148.69Z" stroke="white" stroke-opacity="0.25" stroke-miterlimit="10"/>
<path d="M847.875 148.689H847.822L847.848 148.669L847.875 148.689Z" stroke="white" stroke-opacity="0.25" stroke-miterlimit="10"/>
<path d="M870.191 148.69H869.786L869.988 148.542L870.191 148.69Z" stroke="white" stroke-opacity="0.25" stroke-miterlimit="10"/>
<path d="M351.212 74.4098C351.212 87.6728 344.573 98.4257 336.386 98.4257C330.003 98.4257 324.56 91.8903 322.472 82.7278L321.809 81.9274C320.1 79.8746 316.818 79.9057 315.156 81.9924L312.715 85.0561L312.541 84.8378V148.69H245.867L245.772 148.62L245.715 148.578L242.652 146.367C240.462 144.784 240.427 141.661 242.583 140.034L243.424 139.402C253.05 137.415 259.915 132.236 259.915 126.158C259.915 118.362 248.619 112.045 234.686 112.045C220.753 112.045 209.457 118.364 209.457 126.158C209.457 132.233 216.323 137.415 225.948 139.402L226.789 140.034C228.945 141.661 228.912 144.784 226.72 146.367L223.658 148.578L223.565 148.648L223.505 148.69H156.482V84.8378L156.657 85.0561L159.097 81.9924C160.76 79.9083 164.041 79.8746 165.75 81.9274L166.413 82.7278C168.501 91.8903 173.942 98.4257 180.327 98.4257C188.516 98.4257 195.153 87.6728 195.153 74.4098C195.153 61.1467 188.514 50.3939 180.327 50.3939C173.945 50.3939 168.501 56.9292 166.413 66.0918L165.75 66.8921C164.041 68.945 160.76 68.9112 159.097 66.8272L156.657 63.7635L156.482 63.9817V0.129883H312.546V63.9817L312.721 63.7635L315.161 66.8272C316.824 68.9112 320.105 68.945 321.814 66.8921L322.477 66.0918C324.566 56.9292 330.006 50.3939 336.391 50.3939C344.581 50.3939 351.217 61.1467 351.217 74.4098H351.212Z" stroke="white" stroke-opacity="0.25" stroke-miterlimit="10"/>
<path d="M430.562 74.4098C430.562 87.6728 437.201 98.4257 445.388 98.4257C451.77 98.4257 457.213 91.8903 459.302 82.7278L459.965 81.9274C461.674 79.8746 464.955 79.9057 466.618 81.9924L468.883 84.8378V148.69H402.21L402.134 148.635L398.994 146.367C396.805 144.784 396.769 141.661 398.926 140.034L399.767 139.402C409.392 137.415 416.258 132.236 416.258 126.158C416.258 118.362 404.962 112.045 391.029 112.045C377.096 112.045 365.8 118.364 365.8 126.158C365.8 132.233 372.665 137.415 382.29 139.402L383.131 140.034C385.288 141.661 385.255 144.784 383.063 146.367L379.924 148.632L379.85 148.687H379.845H312.822V84.8352L312.996 85.0535L315.437 81.9898C317.099 79.9057 320.381 79.872 322.09 81.9248L322.753 82.7252C324.841 91.8877 330.282 98.4231 336.667 98.4231C344.856 98.4231 351.493 87.6702 351.493 74.4072C351.493 61.1441 344.854 50.3913 336.667 50.3913C330.285 50.3913 324.841 56.9267 322.753 66.0892L322.09 66.8895C320.381 68.9424 317.099 68.9086 315.437 66.8246L312.996 63.7609L312.822 63.9792V0.129883H468.886V63.9817L466.62 66.8272C464.958 68.9112 461.677 68.945 459.968 66.8921L459.304 66.0918C457.216 56.9292 451.776 50.3939 445.39 50.3939C437.204 50.3939 430.565 61.1467 430.565 74.4098H430.562Z" stroke="white" stroke-opacity="0.25" stroke-miterlimit="10"/>
<path d="M586.555 74.4098C586.555 87.6728 593.194 98.4257 601.381 98.4257C607.763 98.4257 613.207 91.8903 615.295 82.7278L615.958 81.9274C617.667 79.8746 620.949 79.9057 622.611 81.9924L624.877 84.8378V148.69H624.773H558.1L554.884 151.013C552.695 152.595 552.659 155.719 554.816 157.345L555.656 157.977C565.282 159.965 572.147 165.144 572.147 171.222C572.147 179.015 560.851 185.335 546.918 185.335C532.985 185.335 521.689 179.015 521.689 171.222C521.689 165.146 528.552 159.965 538.18 157.977L539.021 157.345C541.177 155.719 541.145 152.595 538.953 151.013L535.737 148.692H535.841H468.818V84.843L466.552 81.9976C464.89 79.9135 461.608 79.8797 459.9 81.9326L459.236 82.733C457.148 91.8955 451.707 98.4309 445.322 98.4309C437.136 98.4309 430.497 87.678 430.497 74.415C430.497 61.1519 437.136 50.3991 445.322 50.3991C451.705 50.3991 457.148 56.9344 459.236 66.097L459.9 66.8973C461.608 68.9502 464.89 68.9164 466.552 66.8324L468.818 63.9869V0.129883H624.882V63.9817L622.616 66.8272C620.954 68.9112 617.673 68.945 615.964 66.8921L615.301 66.0918C613.212 56.9292 607.772 50.3939 601.387 50.3939C593.2 50.3939 586.561 61.1467 586.561 74.4098H586.555Z" stroke="white" stroke-opacity="0.25" stroke-miterlimit="10"/>
<path d="M742.549 74.4098C742.549 87.6728 749.188 98.4257 757.375 98.4257C763.757 98.4257 769.2 91.8903 771.289 82.7278L771.952 81.9274C773.661 79.8746 776.942 79.9057 778.604 81.9924L780.87 84.8378V148.69H714.197L710.978 146.367C708.789 144.784 708.754 141.661 710.91 140.034L711.751 139.402C721.376 137.415 728.242 132.236 728.242 126.158C728.242 118.362 716.946 112.045 703.013 112.045C689.08 112.045 677.784 118.364 677.784 126.158C677.784 132.233 684.649 137.415 694.275 139.402L695.115 140.034C697.272 141.661 697.237 144.784 695.047 146.367L691.829 148.69H624.809V84.8378L622.543 81.9924C620.88 79.9083 617.599 79.8746 615.89 81.9274L615.227 82.7278C613.139 91.8903 607.698 98.4257 601.313 98.4257C593.124 98.4257 586.487 87.6728 586.487 74.4098C586.487 61.1467 593.126 50.3939 601.313 50.3939C607.695 50.3939 613.139 56.9292 615.227 66.0918L615.89 66.8921C617.599 68.945 620.88 68.9112 622.543 66.8272L624.809 63.9817V0.129883H780.873V63.9817L778.607 66.8272C776.945 68.9112 773.664 68.945 771.955 66.8921L771.291 66.0918C769.203 56.9292 763.762 50.3939 757.377 50.3939C749.191 50.3939 742.552 61.1467 742.552 74.4098H742.549Z" stroke="white" stroke-opacity="0.25" stroke-miterlimit="10"/>
<path d="M194.869 74.4098C194.869 87.6728 188.23 98.4257 180.043 98.4257C173.661 98.4257 168.218 91.8903 166.129 82.7278L165.466 81.9274C163.757 79.8746 160.476 79.9057 158.813 81.9924L156.373 85.0561L156.198 84.8378V148.69H89.525L89.3721 148.578L89.2165 148.466L86.3092 146.367C84.1199 144.784 84.0844 141.661 86.241 140.034L87.0818 139.402C96.7071 137.415 103.573 132.236 103.573 126.158C103.573 118.362 92.2766 112.045 78.3436 112.045C64.4105 112.045 53.1145 118.364 53.1145 126.158C53.1145 132.233 59.98 137.415 69.6054 139.402L70.4462 140.034C72.6027 141.661 72.57 144.784 70.3779 146.367L67.4707 148.466L67.3151 148.578L67.1622 148.69H0.136719V0.129883H156.201V63.9817L156.376 63.7635L158.816 66.8272C160.479 68.9112 163.76 68.945 165.469 66.8921L166.132 66.0918C168.22 56.9292 173.661 50.3939 180.046 50.3939C188.233 50.3939 194.872 61.1467 194.872 74.4098H194.869Z" stroke="white" stroke-opacity="0.25" stroke-miterlimit="10"/>
<path d="M936.741 296.714V297.083H870.067L869.933 296.987H869.811L869.871 296.943L869.557 296.714L866.849 294.76C864.659 293.178 864.624 290.054 866.781 288.427L866.822 288.396C866.849 288.373 866.876 288.352 866.903 288.331L867.744 287.7C872.407 286.738 876.422 285.026 879.321 282.828C879.466 282.718 879.608 282.604 879.747 282.49C882.502 280.226 884.112 277.495 884.112 274.551C884.112 274.018 884.06 273.491 883.954 272.974C883.94 272.898 883.927 272.828 883.91 272.753C883.883 272.633 883.853 272.516 883.823 272.402C883.768 272.197 883.703 271.994 883.632 271.791C883.25 270.71 882.646 269.671 881.844 268.694C881.694 268.509 881.538 268.328 881.374 268.146C880.451 267.132 879.316 266.192 878.003 265.339C877.869 265.256 877.738 265.17 877.602 265.087C877.195 264.838 876.774 264.593 876.34 264.362C876.198 264.284 876.048 264.206 875.901 264.128C875.587 263.967 875.265 263.811 874.935 263.658C874.642 263.528 874.348 263.395 874.045 263.266C873.4 262.995 872.734 262.741 872.044 262.504C871.869 262.444 871.697 262.387 871.52 262.33C871.369 262.281 871.216 262.231 871.064 262.185C871.012 262.169 870.96 262.153 870.911 262.138C870.58 262.039 870.247 261.943 869.909 261.849C869.726 261.8 869.543 261.751 869.357 261.704C869.196 261.662 869.035 261.623 868.874 261.582C868.432 261.475 867.982 261.376 867.523 261.283C867.182 261.213 866.838 261.15 866.494 261.088C865.866 260.976 865.23 260.88 864.58 260.797C864.378 260.771 864.174 260.745 863.969 260.722C863.729 260.696 863.491 260.667 863.248 260.644C863.073 260.625 862.899 260.612 862.724 260.597C862.35 260.566 861.976 260.537 861.594 260.516C861.441 260.506 861.291 260.495 861.135 260.49C861.032 260.482 860.928 260.477 860.821 260.475C860.644 260.467 860.466 260.459 860.292 260.454C860.106 260.446 859.926 260.444 859.74 260.441C859.601 260.436 859.459 260.433 859.317 260.433C859.238 260.433 859.162 260.433 859.08 260.433H858.883C850.612 260.433 843.271 262.66 838.671 266.098C838.59 266.158 838.51 266.22 838.431 266.282C835.499 268.587 833.774 271.404 833.774 274.45C833.774 277.724 835.767 280.736 839.108 283.129C839.182 283.184 839.256 283.236 839.332 283.287C839.406 283.342 839.482 283.394 839.559 283.446C842.37 285.346 846.05 286.827 850.265 287.695L850.391 287.788L851.106 288.326C853.227 289.927 853.23 292.972 851.147 294.576C851.07 294.638 850.997 294.7 850.915 294.758L848.207 296.712L848.013 296.852L848.144 296.945L848.196 296.982H847.83L847.696 297.078H780.796V360.805L780.884 360.693L780.968 360.587V360.343L783.409 363.406C785.071 365.49 788.353 365.524 790.061 363.471L790.725 362.671C792.813 353.508 798.254 346.973 804.639 346.973C812.828 346.973 819.464 357.726 819.464 370.989C819.464 384.252 812.825 395.005 804.639 395.005C798.256 395.005 792.813 388.469 790.725 379.307L790.061 378.507C788.353 376.454 785.071 376.485 783.409 378.572L781.056 381.526V381.77L780.884 381.555L780.796 381.443V445.266H847.382L847.434 445.305L847.587 445.417L847.743 445.529L850.65 447.628C850.699 447.665 850.748 447.704 850.797 447.743C852.787 449.367 852.755 452.347 850.664 453.922L849.823 454.553C840.197 456.541 833.332 461.72 833.332 467.798C833.332 470.649 834.844 473.299 837.44 475.516C837.522 475.586 837.61 475.656 837.694 475.729C838.016 475.997 838.358 476.259 838.712 476.511C843.331 479.798 850.505 481.911 858.561 481.911C861.173 481.911 863.693 481.688 866.063 481.277C866.584 481.186 867.097 481.085 867.605 480.973C876.96 478.907 883.583 473.806 883.583 467.837C883.583 461.868 876.717 456.58 867.092 454.592L866.251 453.961C864.094 452.334 864.127 449.211 866.319 447.628L869.226 445.529L869.382 445.417L869.535 445.305H869.688L869.742 445.266H936.85V296.706H936.727L936.741 296.714Z" stroke="white" stroke-opacity="0.25" stroke-miterlimit="10"/>
<path d="M662.709 370.854C662.709 384.119 656.071 394.87 647.884 394.87C641.501 394.87 636.058 388.334 633.97 379.172L633.306 378.371C631.598 376.321 628.316 376.35 626.654 378.436L624.421 381.238L624.366 381.31L624.246 381.162L624.213 381.121L624.041 380.905V445.014H557.139L557.106 445.04H556.899L553.68 447.363C551.491 448.946 551.455 452.069 553.612 453.696L554.453 454.327C564.078 456.315 570.944 461.494 570.944 467.572C570.944 474.391 562.295 480.084 550.797 481.399C550.644 481.417 550.489 481.433 550.333 481.449C548.914 481.589 547.445 481.662 545.952 481.662C532.019 481.662 520.723 475.342 520.723 467.549C520.723 461.473 527.588 456.292 537.214 454.304L538.055 453.673C540.211 452.046 540.176 448.922 537.986 447.34L534.768 445.017H468.182V381.253L468.114 381.17L465.845 378.322C464.183 376.238 460.901 376.204 459.193 378.257L458.529 379.057C456.441 388.22 451 394.755 444.615 394.755C436.426 394.755 429.79 384.002 429.79 370.739C429.79 357.476 436.428 346.724 444.615 346.724C450.998 346.724 456.441 353.259 458.529 362.421L459.193 363.222C460.901 365.275 464.183 365.241 465.845 363.157L468.114 360.309L468.182 360.226V296.979H535.117L535.458 296.735H535.581L535.519 296.691L535.835 296.462L538.336 294.656C539.081 294.116 539.578 293.398 539.821 292.621C540.429 291.065 539.987 289.21 538.489 288.079L537.648 287.448C528.022 285.46 521.157 280.281 521.157 274.203C521.157 273.293 521.31 272.405 521.607 271.545C524.001 265.144 534.148 260.337 546.301 260.337C560.234 260.337 571.53 266.657 571.53 274.45C571.53 275.341 571.383 276.214 571.099 277.059C569.336 281.863 563.202 285.779 555.127 287.448L554.286 288.079C553.576 288.617 553.101 289.313 552.869 290.064C552.25 291.65 552.722 293.539 554.27 294.656L556.77 296.462L557.147 296.735L557.174 296.753L557.488 296.982H624.041V360.571L624.213 360.356L624.246 360.314L624.268 360.288L624.421 360.48L626.654 363.282C628.316 365.366 631.598 365.399 633.306 363.347L633.97 362.546C636.058 353.384 641.499 346.848 647.884 346.848C656.073 346.848 662.709 357.601 662.709 370.864V370.854Z" stroke="white" stroke-opacity="0.25" stroke-miterlimit="10"/>
<path d="M429.746 371.007C429.746 384.27 436.385 395.023 444.572 395.023C450.954 395.023 456.398 388.488 458.486 379.325L459.149 378.525C460.858 376.472 464.139 376.503 465.802 378.59L468.07 381.438V445.287H400.963L400.93 445.313H400.791L397.572 447.636C395.383 449.219 395.348 452.342 397.504 453.969L398.345 454.6C407.97 456.588 414.836 461.767 414.836 467.845C414.836 467.957 414.836 468.071 414.828 468.183C414.811 468.573 414.768 468.957 414.694 469.339C414.683 469.399 414.669 469.459 414.658 469.519C414.65 469.565 414.639 469.615 414.628 469.662C414.607 469.76 414.582 469.859 414.555 469.958C414.506 470.142 414.451 470.322 414.388 470.503C414.364 470.574 414.339 470.644 414.312 470.714C414.293 470.768 414.274 470.826 414.249 470.88C414.219 470.961 414.183 471.041 414.151 471.122C414.08 471.293 414.001 471.462 413.916 471.631C413.916 471.631 413.916 471.639 413.91 471.642C413.878 471.709 413.842 471.774 413.809 471.837C413.7 472.044 413.583 472.252 413.455 472.455C413.403 472.541 413.348 472.626 413.291 472.71C413.231 472.806 413.168 472.897 413.1 472.993C413.051 473.063 413.001 473.133 412.95 473.203C412.87 473.313 412.788 473.422 412.701 473.528C412.636 473.611 412.567 473.697 412.499 473.778C412.21 474.128 411.896 474.471 411.552 474.804C411.475 474.882 411.399 474.955 411.32 475.03C411.235 475.111 411.148 475.191 411.061 475.269C410.607 475.68 410.116 476.077 409.592 476.454C409.505 476.522 409.412 476.587 409.322 476.646C409.218 476.722 409.111 476.792 409.005 476.865C408.898 476.937 408.789 477.008 408.68 477.08C408.571 477.151 408.462 477.218 408.35 477.288C408.238 477.358 408.123 477.426 408.009 477.496C407.905 477.559 407.804 477.618 407.7 477.678C407.569 477.753 407.441 477.826 407.307 477.899C407.247 477.933 407.187 477.967 407.127 477.998C407.067 478.029 407.007 478.063 406.947 478.094C406.824 478.159 406.701 478.224 406.578 478.284C406.461 478.346 406.341 478.406 406.22 478.463C406.046 478.549 405.871 478.632 405.696 478.712C405.519 478.795 405.339 478.876 405.161 478.954C405.049 479.003 404.94 479.05 404.826 479.097C404.73 479.138 404.632 479.177 404.533 479.219C404.471 479.245 404.405 479.271 404.342 479.3C404.149 479.378 403.957 479.453 403.761 479.528C403.078 479.786 402.374 480.027 401.648 480.248C401.462 480.303 401.28 480.357 401.091 480.412C400.903 480.466 400.717 480.518 400.526 480.57C400.381 480.609 400.231 480.648 400.084 480.687C399.781 480.765 399.475 480.838 399.167 480.911C398.986 480.95 398.809 480.989 398.626 481.03C398.476 481.061 398.323 481.095 398.17 481.124C398.072 481.147 397.974 481.165 397.87 481.184C397.455 481.264 397.032 481.339 396.609 481.41C396.565 481.42 396.521 481.428 396.472 481.433C396.309 481.459 396.145 481.485 395.978 481.508C395.812 481.532 395.642 481.553 395.473 481.576C393.641 481.812 391.733 481.937 389.773 481.937C375.84 481.937 364.544 475.617 364.544 467.824C364.544 461.749 371.41 456.567 381.035 454.579L381.876 453.948C384.032 452.321 383.997 449.198 381.808 447.615L378.589 445.292H312.003V381.157L311.88 381.004L309.874 378.486C308.211 376.402 304.93 376.368 303.221 378.421L302.558 379.221C300.47 388.384 295.029 394.919 288.644 394.919C280.455 394.919 273.818 384.166 273.818 370.903C273.818 357.64 280.457 346.887 288.644 346.887C295.026 346.887 300.47 353.423 302.558 362.585L303.221 363.386C304.93 365.438 308.211 365.407 309.874 363.321L311.88 360.803L312.003 360.649V297.146H312.02V297.2H379.042L379.307 297.01H379.023L379.214 296.875L379.023 296.74H379.4L382.239 294.69C383.416 293.84 383.97 292.549 383.899 291.281C383.899 291.268 383.899 291.255 383.899 291.247C383.825 290.163 383.298 289.103 382.31 288.357L381.469 287.726C372.322 285.837 365.669 281.066 365.03 275.38C364.997 275.084 364.978 274.782 364.978 274.481C364.978 266.688 376.274 260.368 390.207 260.368C404.14 260.368 414.795 266.332 415.409 273.824C415.431 274.042 415.436 274.263 415.436 274.481C415.436 280.556 408.571 285.738 398.946 287.726L398.105 288.357C396.893 289.275 396.371 290.662 396.538 291.985C396.669 293.011 397.215 294.001 398.17 294.69L401.009 296.74H401.386L401.195 296.875L401.386 297.01H401.138L401.402 297.2H468.04V297.255H468.059V360.584L465.791 363.432C464.128 365.516 460.847 365.55 459.138 363.497L458.475 362.697C456.387 353.534 450.946 346.999 444.561 346.999C436.371 346.999 429.735 357.752 429.735 371.015L429.746 371.007Z" stroke="white" stroke-opacity="0.25" stroke-miterlimit="10"/>
<path d="M117.88 371.033C117.88 384.296 124.519 395.049 132.705 395.049C139.088 395.049 144.531 388.513 146.619 379.351L147.283 378.551C148.992 376.498 152.273 376.529 153.935 378.616L156.201 381.461V445.313H88.8343L85.6158 447.636C83.4265 449.218 83.391 452.342 85.5476 453.969L86.3884 454.6C96.0138 456.588 102.879 461.767 102.879 467.845C102.879 475.615 91.6542 481.919 77.7785 481.958C63.9055 481.919 52.6777 475.615 52.6777 467.845C52.6777 461.769 59.5433 456.588 69.1686 454.6L70.0094 453.969C72.166 452.342 72.1305 449.218 69.9412 447.636L66.7227 445.313H0.136719V297.026H67.5362L70.3752 299.076C72.5645 300.659 72.6 303.782 70.4435 305.409L69.6027 306.04C59.9773 308.028 53.1118 313.207 53.1118 319.285C53.1118 327.081 64.4078 333.398 78.3409 333.398C92.2739 333.398 103.57 327.078 103.57 319.285C103.57 313.21 96.7044 308.028 87.079 306.04L86.2382 305.409C84.0817 303.782 84.1172 300.659 86.3065 299.076L89.1455 297.026H156.163V297.138H156.196V360.605L153.93 363.45C152.267 365.534 148.986 365.568 147.277 363.515L146.614 362.715C144.526 353.552 139.085 347.017 132.7 347.017C124.51 347.017 117.874 357.77 117.874 371.033H117.88Z" stroke="white" stroke-opacity="0.25" stroke-miterlimit="10"/>
<path d="M194.522 519.59C194.522 532.853 187.883 543.606 179.697 543.606C173.314 543.606 167.871 537.071 165.783 527.908L165.119 527.108C163.41 525.055 160.129 525.086 158.467 527.173L156.201 530.018V593.87H0.136719V445.311H66.8101L70.0285 447.634C72.2178 449.216 72.2533 452.34 70.0968 453.966L69.256 454.598C59.6306 456.586 52.7651 461.765 52.7651 467.843C52.7651 475.638 64.0611 481.955 77.9942 481.955H78.1252C91.9982 481.916 103.226 475.612 103.226 467.843C103.226 461.767 96.3605 456.586 86.7351 454.598L85.8943 453.966C83.7377 452.34 83.7732 449.216 85.9625 447.634L89.181 445.311H156.204V509.162L158.47 512.008C160.132 514.092 163.413 514.126 165.122 512.073L165.785 511.272C167.874 502.11 173.314 495.575 179.699 495.575C187.886 495.575 194.525 506.327 194.525 519.59H194.522Z" stroke="white" stroke-opacity="0.25" stroke-miterlimit="10"/>
<path d="M350.516 519.59C350.516 532.853 343.877 543.606 335.69 543.606C329.307 543.606 323.864 537.071 321.776 527.908L321.113 527.108C319.404 525.055 316.122 525.086 314.46 527.173L312.194 530.018V593.87H156.13V530.018L158.396 527.173C160.058 525.089 163.339 525.055 165.048 527.108L165.712 527.908C167.8 537.071 173.24 543.606 179.626 543.606C187.812 543.606 194.451 532.853 194.451 519.59C194.451 506.327 187.812 495.575 179.626 495.575C173.243 495.575 167.8 502.11 165.712 511.272L165.048 512.073C163.339 514.126 160.058 514.094 158.396 512.008L156.13 509.162V445.311H222.803L226.022 447.634C228.211 449.216 228.246 452.34 226.09 453.966L225.249 454.598C215.624 456.586 208.758 461.765 208.758 467.843C208.758 475.638 220.054 481.955 233.987 481.955C247.92 481.955 259.216 475.636 259.216 467.843C259.216 461.767 252.351 456.586 242.725 454.598L241.885 453.966C239.728 452.34 239.761 449.216 241.953 447.634L245.171 445.311H312.194V509.162L314.46 512.008C316.122 514.092 319.404 514.126 321.113 512.073L321.776 511.272C323.864 502.11 329.305 495.575 335.69 495.575C343.877 495.575 350.516 506.327 350.516 519.59Z" stroke="white" stroke-opacity="0.25" stroke-miterlimit="10"/>
<path d="M506.509 519.59C506.509 532.853 499.87 543.606 491.683 543.606C485.301 543.606 479.857 537.071 477.769 527.908L477.106 527.108C475.397 525.055 472.116 525.086 470.453 527.173L468.187 530.018V593.87H312.123V530.018L314.389 527.173C316.051 525.089 319.333 525.055 321.041 527.108L321.705 527.908C323.793 537.071 329.234 543.606 335.619 543.606C343.805 543.606 350.444 532.853 350.444 519.59C350.444 506.327 343.805 495.574 335.619 495.574C329.236 495.574 323.793 502.11 321.705 511.272L321.041 512.072C319.333 514.125 316.051 514.094 314.389 512.007L312.123 509.162V445.31H378.796L382.015 447.633C384.204 449.216 384.24 452.339 382.083 453.966L381.242 454.597C371.617 456.585 364.751 461.764 364.751 467.842C364.751 475.638 376.047 481.955 389.98 481.955C392.001 481.955 393.969 481.823 395.852 481.568C396.022 481.545 396.191 481.524 396.357 481.5C407.203 479.918 415.21 474.401 415.21 467.84C415.21 461.764 408.344 456.583 398.719 454.595L397.878 453.963C395.721 452.337 395.754 449.213 397.946 447.631L401.165 445.308H468.187V509.159L470.453 512.005C472.116 514.089 475.397 514.123 477.106 512.07L477.769 511.269C479.857 502.107 485.298 495.572 491.683 495.572C499.87 495.572 506.509 506.324 506.509 519.587V519.59Z" stroke="white" stroke-opacity="0.25" stroke-miterlimit="10"/>
<path d="M585.51 519.59C585.51 532.853 592.149 543.606 600.335 543.606C606.718 543.606 612.161 537.071 614.249 527.908L614.913 527.108C616.622 525.055 619.903 525.086 621.565 527.173L624.006 530.237L624.181 530.018V593.87H468.116V530.018L470.382 527.173C472.044 525.089 475.326 525.055 477.035 527.108L477.698 527.908C479.786 537.071 485.227 543.606 491.612 543.606C499.799 543.606 506.438 532.853 506.438 519.59C506.438 506.327 499.799 495.575 491.612 495.575C485.23 495.575 479.786 502.11 477.698 511.272L477.035 512.073C475.326 514.126 472.044 514.094 470.382 512.008L468.116 509.162V445.311H534.79L538.008 447.634C540.197 449.216 540.233 452.34 538.076 453.966L537.235 454.598C527.61 456.586 520.745 461.765 520.745 467.843C520.745 475.638 532.041 481.955 545.974 481.955C547.552 481.955 549.097 481.875 550.595 481.719C550.748 481.703 550.904 481.688 551.059 481.67C562.555 480.355 571.205 474.661 571.205 467.843C571.205 461.767 564.34 456.586 554.715 454.598L553.874 453.966C551.717 452.34 551.75 449.216 553.942 447.634L557.16 445.311H624.183V509.162L624.009 508.944L621.568 512.008C619.906 514.092 616.624 514.126 614.915 512.073L614.252 511.272C612.164 502.11 606.723 495.575 600.338 495.575C592.151 495.575 585.513 506.327 585.513 519.59H585.51Z" stroke="white" stroke-opacity="0.25" stroke-miterlimit="10"/>
<path d="M780.521 445.31V509.162L780.346 508.944L777.905 512.007C776.243 514.092 772.962 514.125 771.253 512.072L770.59 511.272C768.501 502.11 763.061 495.574 756.676 495.574C748.489 495.574 741.85 506.327 741.85 519.59C741.85 532.853 748.489 543.606 756.676 543.606C763.058 543.606 768.501 537.071 770.59 527.908L771.253 527.108C772.962 525.055 776.243 525.086 777.905 527.173L780.346 530.236L780.521 530.018V593.87H624.456V530.018L624.282 530.236L621.841 527.173C620.179 525.089 616.897 525.055 615.189 527.108L614.525 527.908C612.437 537.071 606.996 543.606 600.611 543.606C592.422 543.606 585.786 532.853 585.786 519.59C585.786 506.327 592.425 495.574 600.611 495.574C606.994 495.574 612.437 502.11 614.525 511.272L615.189 512.072C616.897 514.125 620.179 514.094 621.841 512.007L624.282 508.944L624.456 509.162V445.31H691.13L691.263 445.406L694.348 447.633C695.05 448.14 695.533 448.808 695.79 449.533C696.335 451.069 695.88 452.864 694.416 453.966L693.576 454.597C683.95 456.585 677.085 461.764 677.085 467.842C677.085 468.843 677.273 469.82 677.625 470.761C677.658 470.849 677.693 470.94 677.729 471.028C680.314 477.288 690.338 481.955 702.314 481.955C716.247 481.955 727.543 475.635 727.543 467.842C727.543 466.894 727.376 465.969 727.06 465.075C727.035 465.015 727.016 464.958 726.991 464.898C725.187 460.132 719.08 456.258 711.052 454.597L710.211 453.966C709.611 453.514 709.182 452.945 708.917 452.326C708.901 452.285 708.884 452.243 708.868 452.199C708.265 450.619 708.737 448.743 710.277 447.631L713.361 445.404L713.495 445.308H780.518L780.521 445.31Z" stroke="white" stroke-opacity="0.25" stroke-miterlimit="10"/>
<path d="M936.863 445.311V593.87H780.799V530.018L780.624 530.237L778.184 527.173C776.521 525.089 773.24 525.055 771.531 527.108L770.868 527.908C768.78 537.071 763.339 543.606 756.954 543.606C748.767 543.606 742.128 532.853 742.128 519.59C742.128 506.327 748.767 495.575 756.954 495.575C763.336 495.575 768.78 502.11 770.868 511.272L771.531 512.073C773.24 514.126 776.521 514.094 778.184 512.008L780.624 508.944L780.799 509.162V445.311H847.472L847.625 445.422L847.781 445.534L850.688 447.634C850.737 447.67 850.786 447.709 850.836 447.748C852.878 449.359 852.861 452.379 850.754 453.969L849.913 454.6C840.288 456.588 833.422 461.767 833.422 467.845C833.422 470.675 834.913 473.313 837.476 475.524C837.558 475.594 837.645 475.664 837.73 475.737C838.052 476.005 838.393 476.267 838.748 476.519C843.364 479.832 850.563 481.958 858.648 481.958C861.337 481.958 863.928 481.722 866.357 481.285C866.882 481.194 867.392 481.093 867.9 480.981C877.255 478.915 883.877 473.814 883.877 467.845C883.877 464.883 882.248 462.134 879.461 459.868C879.373 459.792 879.28 459.722 879.19 459.649C879.106 459.584 879.024 459.519 878.939 459.457C878.855 459.392 878.77 459.327 878.683 459.265C878.595 459.2 878.502 459.135 878.41 459.07C875.565 457.066 871.76 455.505 867.389 454.603L867.337 454.564L866.549 453.972C866.549 453.972 866.543 453.966 866.54 453.964C866.472 453.914 866.409 453.862 866.346 453.81C864.395 452.147 864.496 449.167 866.614 447.639L869.521 445.539L869.677 445.427L869.83 445.316H936.852L936.863 445.311Z" stroke="white" stroke-opacity="0.25" stroke-miterlimit="10"/>
<path d="M117.88 222.746C117.88 236.009 124.519 246.762 132.705 246.762C139.088 246.762 144.531 240.227 146.619 231.064L147.283 230.264C148.992 228.211 152.273 228.242 153.935 230.329L156.168 233.133V296.753H89.151L89.3393 296.888L89.151 297.024L86.3119 299.074C84.1226 300.656 84.0871 303.78 86.2437 305.407L87.0845 306.038C96.7099 308.026 103.575 313.205 103.575 319.283C103.575 327.079 92.2794 333.396 78.3463 333.396C64.4133 333.396 53.1172 327.076 53.1172 319.283C53.1172 313.207 59.9828 308.026 69.6081 306.038L70.4489 305.407C72.6055 303.78 72.5727 300.656 70.3807 299.074L67.5416 297.024L67.3533 296.888L67.5416 296.753H0.136719V148.69H67.4679L67.3123 148.578L67.4679 148.466L70.3752 146.367C72.5645 144.784 72.6 141.661 70.4435 140.034L69.6027 139.403C59.9773 137.415 53.1118 132.236 53.1118 126.158C53.1118 118.362 64.4078 112.045 78.3409 112.045C92.2739 112.045 103.57 118.365 103.57 126.158C103.57 132.233 96.7044 137.415 87.079 139.403L86.2382 140.034C84.0817 141.661 84.1172 144.784 86.3065 146.367L89.2138 148.466L89.3694 148.578L89.2138 148.69H156.163V212.36L153.93 215.164C152.267 217.248 148.986 217.281 147.277 215.229L146.614 214.428C144.526 205.266 139.085 198.73 132.7 198.73C124.51 198.73 117.874 209.483 117.874 222.746H117.88Z" stroke="white" stroke-opacity="0.25" stroke-miterlimit="10"/>
<path d="M350.807 222.98C350.807 236.243 344.169 246.996 335.982 246.996C329.599 246.996 324.156 240.461 322.068 231.298L321.404 230.498C319.696 228.445 316.414 228.476 314.752 230.563L312.311 233.626V233.53L312.172 233.356L312.137 233.309V297.205H245.499L245.185 296.977L245.212 296.956H245.586L245.398 296.821L245.586 296.686H244.778L245.155 296.959L245.182 296.979L242.368 299.009C240.178 300.591 240.143 303.715 242.3 305.342L243.14 305.973C252.766 307.961 259.631 313.14 259.631 319.218C259.631 327.011 248.335 333.331 234.402 333.331C220.469 333.331 209.173 327.011 209.173 319.218C209.173 313.142 216.039 307.961 225.664 305.973L226.505 305.342C228.661 303.715 228.626 300.591 226.436 299.009L223.597 296.959L223.535 296.914L223.851 296.686H223.218L223.406 296.821L223.218 296.956H223.469L223.128 297.203H156.108V297.091H156.141V233.239L156.108 233.198L153.875 230.394C152.212 228.31 148.931 228.276 147.222 230.329L146.559 231.129C144.471 240.292 139.03 246.827 132.645 246.827C124.458 246.827 117.819 236.074 117.819 222.811C117.819 209.548 124.458 198.795 132.645 198.795C139.027 198.795 144.471 205.331 146.559 214.493L147.222 215.294C148.931 217.346 152.212 217.315 153.875 215.229L156.108 212.425L156.141 212.383V148.755H223.278L223.221 148.713L223.314 148.643L226.376 146.432C228.566 144.849 228.601 141.726 226.445 140.099L225.604 139.468C215.979 137.48 209.113 132.301 209.113 126.223C209.113 118.43 220.409 112.11 234.342 112.11C248.275 112.11 259.571 118.43 259.571 126.223C259.571 132.298 252.706 137.48 243.08 139.468L242.239 140.099C240.083 141.726 240.118 144.849 242.308 146.432L245.371 148.643L245.428 148.685L245.335 148.755H312.129V212.539L312.164 212.492L312.336 212.277V212.373L314.741 215.392C316.403 217.476 319.685 217.51 321.394 215.457L322.057 214.657C324.145 205.494 329.586 198.959 335.971 198.959C344.158 198.959 350.797 209.712 350.797 222.975L350.807 222.98Z" stroke="white" stroke-opacity="0.25" stroke-miterlimit="10"/>
<path d="M245.829 296.956L245.641 296.821L245.829 296.686H245.019L245.398 296.956L245.425 296.977L245.455 296.956H245.829Z" stroke="white" stroke-opacity="0.25" stroke-miterlimit="10"/>
<path d="M288.865 346.879C295.248 346.879 300.691 353.415 302.779 362.577L303.442 363.378C305.151 365.431 308.433 365.399 310.095 363.313L312.102 360.795V297.205H245.742L245.428 296.977L242.614 299.006C240.424 300.589 240.389 303.712 242.545 305.339L243.386 305.97C253.012 307.958 259.877 313.137 259.877 319.215C259.877 327.011 248.581 333.328 234.648 333.328C220.715 333.328 209.419 327.008 209.419 319.215C209.419 313.14 216.285 307.958 225.91 305.97L226.751 305.339C228.907 303.712 228.872 300.589 226.682 299.006L223.843 296.956L223.781 296.912L224.097 296.683H223.464L223.652 296.818L223.464 296.953H223.715L223.374 297.2H156.354V297.088H156.387V296.613H156.037V360.862L153.979 363.445C152.316 365.529 149.035 365.563 147.326 363.51L146.663 362.71C144.575 353.547 139.134 347.012 132.749 347.012C124.562 347.012 117.923 357.765 117.923 371.028C117.923 384.291 124.562 395.044 132.749 395.044C139.131 395.044 144.575 388.508 146.663 379.346L147.326 378.545C149.035 376.493 152.316 376.524 153.979 378.61L156.037 381.193V445.17H222.623L225.842 447.493C227.395 448.616 227.864 450.513 227.234 452.103C227.223 452.132 227.212 452.16 227.204 452.186C226.942 452.805 226.513 453.371 225.91 453.826L225.069 454.457C217.046 456.113 210.94 459.992 209.13 464.755C209.105 464.813 209.086 464.872 209.064 464.929C208.745 465.826 208.578 466.754 208.578 467.702C208.578 475.495 219.874 481.815 233.807 481.815C245.783 481.815 255.807 477.148 258.392 470.888C258.422 470.813 258.452 470.74 258.477 470.664C258.843 469.708 259.036 468.718 259.036 467.699C259.036 461.624 252.171 456.443 242.545 454.455L241.705 453.823C240.244 452.719 239.788 450.926 240.329 449.393C240.585 448.665 241.069 447.997 241.773 447.488L244.991 445.165H312.099V380.988L310.092 378.47C308.43 376.386 305.149 376.352 303.44 378.405L302.776 379.205C300.688 388.368 295.248 394.903 288.862 394.903C280.673 394.903 274.037 384.151 274.037 370.888C274.037 357.624 280.676 346.872 288.862 346.872L288.865 346.879Z" stroke="white" stroke-opacity="0.25" stroke-miterlimit="10"/>
<path d="M430.207 222.912C430.207 236.175 436.846 246.928 445.033 246.928C451.415 246.928 456.859 240.393 458.947 231.23L459.61 230.43C461.319 228.377 464.601 228.408 466.263 230.495L468.496 233.296V297.192H401.858L401.593 297.002L401.528 296.956L401.217 296.73L398.642 294.869C397.624 294.134 397.07 293.066 396.991 291.972C396.895 290.706 397.419 289.407 398.574 288.534L399.415 287.902C409.04 285.914 415.906 280.735 415.906 274.657C415.906 274.372 415.889 274.088 415.859 273.808C415.076 266.41 404.099 260.545 390.677 260.545C377.254 260.545 365.448 266.864 365.448 274.657C365.448 274.894 365.459 275.13 365.48 275.367C365.988 281.133 372.687 285.992 381.939 287.902L382.779 288.534C383.71 289.238 384.234 290.218 384.352 291.234C384.352 291.244 384.352 291.257 384.352 291.267C384.494 292.595 383.942 293.975 382.711 294.866L380.137 296.727L379.807 296.963L379.76 296.997L379.495 297.187H312.473V297.132H312.508V233.283L312.647 233.457V233.553L315.088 230.49C316.75 228.406 320.032 228.372 321.74 230.425L322.404 231.225C324.492 240.388 329.933 246.923 336.318 246.923C344.504 246.923 351.143 236.17 351.143 222.907C351.143 209.644 344.504 198.891 336.318 198.891C329.935 198.891 324.492 205.427 322.404 214.589L321.74 215.389C320.032 217.442 316.75 217.411 315.088 215.324L312.683 212.305V212.209L312.511 212.424V148.687H379.572L379.646 148.63L382.785 146.364C384.974 144.781 385.01 141.658 382.853 140.031L382.012 139.4C372.387 137.412 365.521 132.233 365.521 126.155C365.521 118.359 376.817 112.042 390.75 112.042C404.684 112.042 415.98 118.362 415.98 126.155C415.98 132.23 409.114 137.412 399.489 139.4L398.648 140.031C396.491 141.658 396.524 144.781 398.716 146.364L401.855 148.63L401.782 148.687H468.499V212.526L466.266 215.327C464.603 217.411 461.322 217.445 459.613 215.392L458.95 214.592C456.861 205.429 451.421 198.894 445.036 198.894C436.846 198.894 430.21 209.647 430.21 222.91L430.207 222.912Z" stroke="white" stroke-opacity="0.25" stroke-miterlimit="10"/>
<path d="M663.136 223.021C663.136 236.285 656.497 247.037 648.31 247.037C641.927 247.037 636.484 240.502 634.396 231.339L633.733 230.539C632.024 228.486 628.742 228.517 627.08 230.604L624.639 233.668V233.566L624.503 233.392L624.47 233.348V297.244H557.832L557.518 297.016L557.491 296.997L557.114 296.724L554.614 294.918C553.066 293.799 552.597 291.909 553.214 290.327C553.467 289.669 553.912 289.064 554.546 288.586L555.386 287.954C563.601 286.257 569.803 282.237 571.446 277.321C571.73 276.476 571.877 275.603 571.877 274.712C571.877 266.919 560.581 260.599 546.648 260.599C534.492 260.599 524.346 265.407 521.954 271.807C521.602 272.745 521.419 273.717 521.419 274.712C521.419 280.788 528.282 285.969 537.91 287.957L538.751 288.588C540.17 289.662 540.643 291.384 540.168 292.886C539.925 293.663 539.428 294.381 538.683 294.921L536.182 296.727L535.865 296.956L535.805 297L535.464 297.244H468.441V297.19H468.474V233.338L468.441 233.294L466.208 230.492C464.546 228.408 461.265 228.375 459.556 230.427L458.892 231.228C456.804 240.39 451.364 246.926 444.979 246.926C436.789 246.926 430.153 236.173 430.153 222.91C430.153 209.647 436.792 198.894 444.979 198.894C451.361 198.894 456.804 205.429 458.892 214.592L459.556 215.392C461.265 217.445 464.546 217.414 466.208 215.327L468.441 212.526L468.474 212.482V148.687H535.464L538.68 151.008C540.869 152.59 540.905 155.714 538.748 157.34L537.907 157.972C528.282 159.96 521.416 165.139 521.416 171.217C521.416 179.01 532.713 185.329 546.646 185.329C560.579 185.329 571.875 179.01 571.875 171.217C571.875 165.141 565.009 159.96 555.384 157.972L554.543 157.34C552.386 155.714 552.419 152.59 554.611 151.008L557.827 148.687H624.503V148.742H624.47V212.58L624.503 212.536L624.678 212.318V212.419L627.08 215.436C628.742 217.52 632.024 217.554 633.733 215.501L634.396 214.701C636.484 205.538 641.925 199.003 648.31 199.003C656.499 199.003 663.136 209.756 663.136 223.019V223.021Z" stroke="white" stroke-opacity="0.25" stroke-miterlimit="10"/>
<path d="M780.854 297.08V297.301H714.178L713.82 297.044L710.872 299.17C708.683 300.752 708.647 303.876 710.804 305.502L711.644 306.134C721.27 308.122 728.135 313.301 728.135 319.379C728.135 327.174 716.839 333.491 702.906 333.491C688.973 333.491 677.677 327.174 677.677 319.379C677.677 313.303 684.543 308.122 694.168 306.134L695.009 305.502C697.165 303.876 697.133 300.752 694.941 299.17L692.08 297.104L691.81 297.299H624.79V297.241H624.822V233.39L624.959 233.564V233.665L627.399 230.601C629.062 228.517 632.343 228.484 634.052 230.536L634.715 231.337C636.804 240.499 642.244 247.035 648.629 247.035C656.816 247.035 663.455 236.282 663.455 223.019C663.455 209.756 656.816 199.003 648.629 199.003C642.247 199.003 636.804 205.538 634.715 214.701L634.052 215.501C632.343 217.554 629.062 217.523 627.399 215.436L624.997 212.419V212.318L624.822 212.536V148.687H691.949L695.167 146.364C697.357 144.781 697.392 141.658 695.236 140.031L694.395 139.4C684.769 137.412 677.904 132.233 677.904 126.155C677.904 118.359 689.2 112.042 703.133 112.042C717.066 112.042 728.362 118.362 728.362 126.155C728.362 132.23 721.496 137.412 711.871 139.4L711.03 140.031C708.874 141.658 708.906 144.781 711.099 146.364L714.317 148.687H780.816V212.638L778.583 215.439C776.92 217.523 773.639 217.557 771.93 215.504L771.267 214.703C769.178 205.541 763.738 199.005 757.353 199.005C749.163 199.005 742.527 209.758 742.527 223.021C742.527 236.284 749.166 247.037 757.353 247.037C763.735 247.037 769.178 240.502 771.267 231.339L771.93 230.539C773.639 228.486 776.92 228.517 778.583 230.604L780.816 233.405V297.08H780.851H780.854Z" stroke="white" stroke-opacity="0.25" stroke-miterlimit="10"/>
<path d="M936.864 148.69V297.083H870.19L870.057 296.987L869.994 296.943L869.68 296.714L866.972 294.76C864.783 293.178 864.747 290.054 866.904 288.428L866.945 288.396L867.745 287.796C872.47 286.819 876.537 285.073 879.445 282.828C879.589 282.719 879.731 282.604 879.87 282.49C882.625 280.227 884.235 277.495 884.235 274.551C884.235 266.758 872.939 260.438 859.006 260.438C850.735 260.438 843.394 262.665 838.795 266.103C838.713 266.163 838.634 266.225 838.555 266.288C835.549 268.611 833.777 271.464 833.777 274.554C833.777 280.629 840.643 285.811 850.268 287.799L851.109 288.43C853.186 289.997 853.233 292.957 851.273 294.584C851.196 294.646 851.123 294.708 851.041 294.765L848.333 296.72L848.142 296.86L847.956 296.992L847.822 297.089H780.838V233.46L780.802 233.413L778.569 230.612C776.907 228.528 773.626 228.494 771.917 230.547L771.253 231.348C769.165 240.51 763.724 247.045 757.339 247.045C749.153 247.045 742.514 236.293 742.514 223.03C742.514 209.767 749.153 199.014 757.339 199.014C763.722 199.014 769.165 205.549 771.253 214.712L771.917 215.512C773.626 217.565 776.907 217.534 778.569 215.447L780.802 212.646L780.838 212.599V148.75H780.802V148.695H848.052L851.041 150.852C853.23 152.434 853.266 155.558 851.109 157.185L850.268 157.816C840.643 159.804 833.777 164.983 833.777 171.061C833.777 178.857 845.073 185.174 859.006 185.174C872.939 185.174 884.235 178.854 884.235 171.061C884.235 164.986 877.37 159.804 867.745 157.816L866.904 157.185C864.747 155.558 864.78 152.434 866.972 150.852L869.961 148.695H936.864V148.69Z" stroke="white" stroke-opacity="0.25" stroke-miterlimit="10"/>
</g>
<defs>
<clipPath id="clip0_166_348">
<rect width="937" height="594" fill="white"/>
</clipPath>
</defs>
</svg>
