<?xml version="1.0" encoding="UTF-8" standalone="no"?>
<!DOCTYPE svg PUBLIC "-//W3C//DTD SVG 1.1//EN" "http://www.w3.org/Graphics/SVG/1.1/DTD/svg11.dtd">
<svg width="100%" height="100%" viewBox="0 0 398 64" version="1.1" xmlns="http://www.w3.org/2000/svg" xmlns:xlink="http://www.w3.org/1999/xlink" xml:space="preserve" xmlns:serif="http://www.serif.com/" style="fill-rule:evenodd;clip-rule:evenodd;stroke-linejoin:round;stroke-miterlimit:2;">
    <g transform="matrix(1,0,0,1,-966.765,-641.881)">
        <g transform="matrix(5.78513,0,0,14.9954,0,0)">
            <g id="Sitework-Logo" serif:id="Sitework Logo" transform="matrix(0.325624,0,0,0.377655,135.56,25.1851)">
                <g transform="matrix(0.530848,0,0,0.176582,96.7709,46.6567)">
                    <path d="M398.114,53.559C398.114,59.312 393.45,63.976 387.697,63.976C381.942,63.976 377.279,59.312 377.279,53.559C377.279,47.806 381.942,43.142 387.697,43.142C393.45,43.142 398.114,47.806 398.114,53.559" style="fill:rgb(0,174,239);fill-rule:nonzero;"/>
                </g>
                <g transform="matrix(0.530848,0,0,0.176582,94.5342,46.6567)">
                    <path d="M33.402,30.447C33.314,28.951 32.522,27.807 31.378,27.015C30.322,26.135 28.914,25.695 27.506,25.695C25.043,25.695 22.227,26.223 22.227,29.215C22.227,30.535 23.282,31.152 24.251,31.592C27.154,32.823 33.754,33.176 39.562,35.112C45.37,36.96 50.474,40.391 50.474,47.872C50.474,60.544 38.33,63.976 27.242,63.976C16.506,63.976 4.715,59.663 4.451,47.872L21.083,47.872C21.171,49.456 21.875,50.776 23.194,51.92C24.074,52.712 25.746,53.239 27.859,53.239C30.146,53.239 33.754,52.36 33.754,49.719C33.754,47.079 32.258,46.287 24.162,44.879C10.875,42.592 5.507,38.367 5.507,30.535C5.507,19.008 17.915,16.015 27.067,16.015C36.922,16.015 48.802,18.744 49.242,30.447L33.402,30.447Z" style="fill:rgb(0,174,239);fill-rule:nonzero;"/>
                </g>
                <g transform="matrix(0.530848,0,0,0.176582,94.5342,46.6567)">
                    <rect x="54.347" y="17.16" width="17.423" height="45.67" style="fill:rgb(0,174,239);"/>
                </g>
                <g transform="matrix(0.530848,0,0,0.176582,95.2508,46.6567)">
                    <path d="M99.137,17.16L108.465,17.16L108.465,27.895L99.137,27.895L99.137,43.823C99.137,48.047 100.105,49.894 104.505,49.894C105.825,49.894 107.145,49.806 108.465,49.63L108.465,62.83C104.945,62.83 100.985,63.358 97.289,63.358C89.897,63.358 81.714,62.214 81.714,49.718L81.714,27.896L73.97,27.896L73.97,17.16L81.714,17.16L81.714,3.256L99.137,3.256L99.137,17.16Z" style="fill:rgb(0,174,239);fill-rule:nonzero;"/>
                </g>
                <g transform="matrix(0.530848,0,0,0.176582,96.3125,46.6567)">
                    <path d="M125.185,43.911C125.625,49.103 128.617,52.799 134.073,52.799C136.889,52.799 139.969,51.743 141.377,49.543L157.656,49.543C154.136,59.398 144.545,63.975 134.161,63.975C119.553,63.975 108.554,55.351 108.554,40.127C108.554,26.84 118.234,16.016 132.665,16.016C150.793,16.016 158.624,26.136 158.624,43.912L125.185,43.912L125.185,43.911ZM141.904,34.848C141.904,30.623 138.736,27.192 134.248,27.192C129.056,27.192 126.065,29.921 125.273,34.848L141.904,34.848Z" style="fill:rgb(0,174,239);fill-rule:nonzero;"/>
                </g>
                <g transform="matrix(0.530848,0,0,0.176582,96.3125,46.6567)">
                    <path d="M220.399,62.83L202.536,62.83L195.936,34.76L195.759,34.76L188.984,62.83L171.121,62.83L156.865,17.16L174.993,17.16L181.768,45.407L181.944,45.407L187.752,17.16L204.032,17.16L210.103,45.407L210.456,45.407L216.792,17.16L234.919,17.16L220.399,62.83Z" style="fill:white;fill-rule:nonzero;"/>
                </g>
                <g transform="matrix(0.530848,0,0,0.176582,96.0765,46.6567)">
                    <path d="M258.415,63.975C241.256,63.975 233.513,52.624 233.513,39.952C233.513,27.28 241.256,16.016 258.415,16.016C275.574,16.016 283.317,27.28 283.317,39.952C283.317,52.624 275.574,63.975 258.415,63.975M258.415,28.688C251.814,28.688 250.936,35.112 250.936,39.952C250.936,44.793 251.815,51.304 258.415,51.304C265.015,51.304 265.894,44.793 265.894,39.952C265.895,35.111 265.016,28.688 258.415,28.688" style="fill:white;fill-rule:nonzero;"/>
                </g>
                <g transform="matrix(0.530848,0,0,0.176582,95.8111,46.6567)">
                    <path d="M287.367,17.16L304.087,17.16L304.087,24.464L304.263,24.464C307.078,19.008 310.774,16.016 317.11,16.016C318.871,16.016 320.543,16.28 322.214,16.721L322.214,32.119C320.454,31.504 318.87,30.975 315.35,30.975C308.486,30.975 304.791,35.023 304.791,44.79L304.791,62.83L287.367,62.83L287.367,17.16Z" style="fill:white;fill-rule:nonzero;"/>
                </g>
                <g transform="matrix(0.530848,0,0,0.176582,97.1351,46.6567)">
                    <path d="M323.27,0L340.693,0L340.693,30.359L351.781,17.16L371.492,17.16L355.212,34.407L374.043,62.83L353.101,62.83L343.773,46.287L340.693,49.631L340.693,62.83L323.27,62.83L323.27,0Z" style="fill:white;fill-rule:nonzero;"/>
                </g>
            </g>
        </g>
    </g>
</svg>
