<svg width="280" height="46" viewBox="0 0 280 46" fill="none" xmlns="http://www.w3.org/2000/svg">
<path d="M20.3739 21.4266C20.3119 20.3738 19.7546 19.5687 18.9495 19.0114C18.2064 18.3921 17.2155 18.0824 16.2246 18.0824C14.4913 18.0824 12.5096 18.454 12.5096 20.5596C12.5096 21.4885 13.2521 21.9227 13.934 22.2323C15.9769 23.0986 20.6216 23.3471 24.7089 24.7095C28.7962 26.01 32.388 28.4245 32.388 33.6892C32.388 42.6069 23.8419 45.0221 16.0388 45.0221C8.48354 45.0221 0.185786 41.9869 0 33.6892H11.7045C11.7665 34.8039 12.2619 35.7328 13.1901 36.5379C13.8094 37.0952 14.9861 37.4661 16.4731 37.4661C18.0825 37.4661 20.6216 36.8475 20.6216 34.989C20.6216 33.1311 19.5688 32.5737 13.8713 31.5829C4.5208 29.9734 0.743145 27.0002 0.743145 21.4885C0.743145 13.3765 9.4751 11.2703 15.9157 11.2703C22.851 11.2703 31.2114 13.1908 31.521 21.4266H20.3739Z" fill="#00AEEF"/>
<path d="M47.3748 12.0762H35.1136V44.2158H47.3748V12.0762Z" fill="#00AEEF"/>
<path d="M67.584 12.076H74.1484V19.6306H67.584V30.8397C67.584 33.8123 68.2652 35.1121 71.3616 35.1121C72.2906 35.1121 73.2195 35.0501 74.1484 34.9263V44.2156C71.6713 44.2156 68.8845 44.5872 66.2835 44.5872C61.0814 44.5872 55.3228 43.7821 55.3228 34.9882V19.6313H49.873V12.076H55.3228V2.29126H67.584V12.076Z" fill="#00AEEF"/>
<path d="M87.3224 30.9017C87.632 34.5555 89.7376 37.1565 93.5772 37.1565C95.5589 37.1565 97.7264 36.4133 98.7173 34.8651H110.173C107.696 41.8004 100.947 45.0214 93.6391 45.0214C83.3589 45.0214 75.6185 38.9524 75.6185 28.2387C75.6185 18.8882 82.4307 11.271 92.5863 11.271C105.344 11.271 110.855 18.3928 110.855 30.9024H87.3224V30.9017ZM99.0881 24.5237C99.0881 21.5505 96.8587 19.1359 93.7003 19.1359C90.0465 19.1359 87.9417 21.0564 87.3843 24.5237H99.0881Z" fill="#00AEEF"/>
<path d="M154.328 44.2158H141.757L137.112 24.4619H136.988L132.22 44.2158H119.649L109.617 12.0762H122.374L127.142 31.9546H127.266L131.353 12.0762H142.81L147.082 31.9546H147.331L151.789 12.0762H164.546L154.328 44.2158Z" fill="white"/>
<path d="M180.768 45.0214C168.693 45.0214 163.244 37.0333 163.244 28.1156C163.244 19.1979 168.693 11.271 180.768 11.271C192.844 11.271 198.293 19.1979 198.293 28.1156C198.293 37.0333 192.844 45.0214 180.768 45.0214ZM180.768 20.1887C176.123 20.1887 175.505 24.7095 175.505 28.1156C175.505 31.5224 176.124 36.1044 180.768 36.1044C185.413 36.1044 186.031 31.5224 186.031 28.1156C186.032 24.7088 185.414 20.1887 180.768 20.1887Z" fill="white"/>
<path d="M200.791 12.0761H212.557V17.2161H212.681C214.662 13.3766 217.263 11.271 221.722 11.271C222.961 11.271 224.138 11.4568 225.314 11.7671V22.6032C224.075 22.1704 222.961 21.7982 220.484 21.7982C215.653 21.7982 213.053 24.6469 213.053 31.5203V44.2156H200.791V12.0761Z" fill="white"/>
<path d="M227.812 0H240.073V21.3647L247.876 12.0761H261.748L250.291 24.2134L263.543 44.2157H248.805L242.241 32.5738L240.073 34.9271V44.2157H227.812V0Z" fill="white"/>
<path d="M280 37.6914C280 41.74 276.718 45.0222 272.669 45.0222C268.619 45.0222 265.338 41.74 265.338 37.6914C265.338 33.6428 268.619 30.3606 272.669 30.3606C276.718 30.3606 280 33.6428 280 37.6914Z" fill="#00AEEF"/>
</svg>
